<svg width="16" height="16" viewBox="0 0 16 16" fill="none" xmlns="http://www.w3.org/2000/svg">
<mask id="mask0_31449_39895" style="mask-type:alpha" maskUnits="userSpaceOnUse" x="0" y="2" width="16" height="12">
<path fill-rule="evenodd" clip-rule="evenodd" d="M0.666748 3.33333C0.666748 2.59695 1.2637 2 2.00008 2H14.0001C14.7365 2 15.3334 2.59695 15.3334 3.33333V8.66667C15.3334 9.40305 14.7365 10 14.0001 10H2.00008C1.2637 10 0.666748 9.40305 0.666748 8.66667V3.33333ZM14.0001 3.33333H2.00008V8.66667H14.0001V3.33333Z" fill="white"/>
<path d="M4 6.66699H12V9.33366H4V6.66699Z" fill="white"/>
<path fill-rule="evenodd" clip-rule="evenodd" d="M3.3335 6.66667C3.3335 6.29848 3.63197 6 4.00016 6H12.0002C12.3684 6 12.6668 6.29848 12.6668 6.66667V9.33333C12.6668 9.70152 12.3684 10 12.0002 10H4.00016C3.63197 10 3.3335 9.70152 3.3335 9.33333V6.66667ZM4.66683 7.33333V8.66667H11.3335V7.33333H4.66683Z" fill="white"/>
<path fill-rule="evenodd" clip-rule="evenodd" d="M10.0001 4.66667C10.0001 4.29848 10.2986 4 10.6667 4H12.0001C12.3683 4 12.6667 4.29848 12.6667 4.66667C12.6667 5.03486 12.3683 5.33333 12.0001 5.33333H10.6667C10.2986 5.33333 10.0001 5.03486 10.0001 4.66667ZM8.00008 10.6667C8.36827 10.6667 8.66675 10.9651 8.66675 11.3333V13.3333C8.66675 13.7015 8.36827 14 8.00008 14C7.63189 14 7.33341 13.7015 7.33341 13.3333V11.3333C7.33341 10.9651 7.63189 10.6667 8.00008 10.6667ZM5.33341 11.3333C5.7016 11.3333 6.00008 11.6318 6.00008 12V12.6667C6.00008 13.0349 5.7016 13.3333 5.33341 13.3333C4.96522 13.3333 4.66675 13.0349 4.66675 12.6667V12C4.66675 11.6318 4.96522 11.3333 5.33341 11.3333ZM10.6667 11.3333C11.0349 11.3333 11.3334 11.6318 11.3334 12V12.6667C11.3334 13.0349 11.0349 13.3333 10.6667 13.3333C10.2986 13.3333 10.0001 13.0349 10.0001 12.6667V12C10.0001 11.6318 10.2986 11.3333 10.6667 11.3333Z" fill="white"/>
</mask>
<g mask="url(#mask0_31449_39895)">
<path d="M0 0H16V16H0V0Z" fill="#034C82"/>
</g>
</svg>
