<svg width="16" height="16" viewBox="0 0 16 16" fill="none" xmlns="http://www.w3.org/2000/svg">
<path d="M3.34267 2.02349C3.30987 1.79424 3.36968 1.56139 3.50894 1.37615C3.5779 1.28443 3.66428 1.20716 3.76316 1.14875C3.86205 1.09034 3.97149 1.05193 4.08525 1.03573C4.19901 1.01952 4.31485 1.02584 4.42616 1.0543C4.53748 1.08277 4.64208 1.13283 4.734 1.20164C4.91965 1.3406 5.04237 1.54745 5.07517 1.77669L5.46717 4.52402H9.533L9.176 2.02698C9.15529 1.91157 9.15809 1.79317 9.18423 1.67886C9.21037 1.56455 9.25932 1.45667 9.32815 1.36164C9.39698 1.26661 9.48429 1.1864 9.58487 1.12577C9.68545 1.06515 9.79723 1.02536 9.91356 1.00878C10.0299 0.992194 10.1484 0.999161 10.2619 1.02926C10.3755 1.05936 10.4818 1.11198 10.5746 1.18397C10.6673 1.25596 10.7446 1.34586 10.8017 1.44829C10.8589 1.55073 10.8948 1.6636 10.9073 1.78019L11.3017 4.52286H12.9583C13.1904 4.52271 13.413 4.61454 13.5772 4.77817C13.7414 4.9418 13.8338 5.16381 13.8339 5.39537C13.8341 5.62693 13.742 5.84906 13.578 6.01291C13.4141 6.17676 13.1916 6.26889 12.9595 6.26904H11.5513L12.0507 9.76141H14.125C14.3571 9.76141 14.5796 9.8534 14.7437 10.0171C14.9078 10.1809 15 10.4029 15 10.6345C15 10.8661 14.9078 11.0881 14.7437 11.2519C14.5796 11.4156 14.3571 11.5076 14.125 11.5076H12.2992L12.6562 14.0035C12.6724 14.117 12.6661 14.2326 12.6376 14.3436C12.609 14.4547 12.5588 14.5591 12.4899 14.6508C12.4209 14.7425 12.3346 14.8198 12.2357 14.8782C12.1368 14.9366 12.0273 14.975 11.9136 14.9912C11.7998 15.0074 11.684 15.0011 11.5727 14.9727C11.4614 14.9442 11.3568 14.8941 11.2648 14.8253C11.1729 14.7565 11.0955 14.6703 11.0369 14.5717C10.9784 14.473 10.9399 14.3638 10.9237 14.2503L10.5317 11.5076H6.46583L6.82283 14.0035C6.83907 14.117 6.83275 14.2326 6.80422 14.3436C6.77569 14.4547 6.72552 14.5591 6.65656 14.6508C6.58761 14.7425 6.50122 14.8198 6.40234 14.8782C6.30345 14.9366 6.19401 14.975 6.08025 14.9912C5.96649 15.0074 5.85065 15.0011 5.73934 14.9727C5.62803 14.9442 5.52342 14.8941 5.4315 14.8253C5.33958 14.7565 5.26213 14.6703 5.2036 14.5717C5.14506 14.473 5.10657 14.3638 5.09033 14.2503L4.69717 11.5076H3.04167C2.8096 11.5076 2.58704 11.4156 2.42295 11.2519C2.25885 11.0881 2.16667 10.8661 2.16667 10.6345C2.16667 10.4029 2.25885 10.1809 2.42295 10.0171C2.58704 9.8534 2.8096 9.76141 3.04167 9.76141H4.44867L3.94933 6.26904L1.875 6.27021C1.64294 6.27021 1.42038 6.17822 1.25628 6.01449C1.09219 5.85075 1 5.62867 1 5.39712C1 5.16556 1.09219 4.94348 1.25628 4.77975C1.42038 4.61601 1.64294 4.52402 1.875 4.52402H3.69967L3.34267 2.02349ZM5.71683 6.27021L6.21617 9.76141H10.282L9.78267 6.26904H5.71683V6.27021Z" fill="#034C82"/>
</svg>
