<svg width="25" height="24" viewBox="0 0 25 24" fill="none" xmlns="http://www.w3.org/2000/svg">
<path d="M9.25 10H10.25C10.5152 10 10.7696 9.89464 10.9571 9.70711C11.1446 9.51957 11.25 9.26522 11.25 9C11.25 8.73478 11.1446 8.48043 10.9571 8.29289C10.7696 8.10536 10.5152 8 10.25 8H9.25C8.98478 8 8.73043 8.10536 8.54289 8.29289C8.35536 8.48043 8.25 8.73478 8.25 9C8.25 9.26522 8.35536 9.51957 8.54289 9.70711C8.73043 9.89464 8.98478 10 9.25 10ZM9.25 12C8.98478 12 8.73043 12.1054 8.54289 12.2929C8.35536 12.4804 8.25 12.7348 8.25 13C8.25 13.2652 8.35536 13.5196 8.54289 13.7071C8.73043 13.8946 8.98478 14 9.25 14H15.25C15.5152 14 15.7696 13.8946 15.9571 13.7071C16.1446 13.5196 16.25 13.2652 16.25 13C16.25 12.7348 16.1446 12.4804 15.9571 12.2929C15.7696 12.1054 15.5152 12 15.25 12H9.25ZM20.25 8.94C20.2396 8.84813 20.2195 8.75763 20.19 8.67V8.58C20.1419 8.47718 20.0778 8.38267 20 8.3L14 2.3C13.9173 2.22222 13.8228 2.15808 13.72 2.11C13.6902 2.10576 13.6599 2.10576 13.63 2.11C13.5284 2.05174 13.4162 2.01434 13.3 2H7.25C6.45435 2 5.69129 2.31607 5.12868 2.87868C4.56607 3.44129 4.25 4.20435 4.25 5V19C4.25 19.7956 4.56607 20.5587 5.12868 21.1213C5.69129 21.6839 6.45435 22 7.25 22H17.25C18.0456 22 18.8087 21.6839 19.3713 21.1213C19.9339 20.5587 20.25 19.7956 20.25 19V9C20.25 9 20.25 9 20.25 8.94ZM14.25 5.41L16.84 8H15.25C14.9848 8 14.7304 7.89464 14.5429 7.70711C14.3554 7.51957 14.25 7.26522 14.25 7V5.41ZM18.25 19C18.25 19.2652 18.1446 19.5196 17.9571 19.7071C17.7696 19.8946 17.5152 20 17.25 20H7.25C6.98478 20 6.73043 19.8946 6.54289 19.7071C6.35536 19.5196 6.25 19.2652 6.25 19V5C6.25 4.73478 6.35536 4.48043 6.54289 4.29289C6.73043 4.10536 6.98478 4 7.25 4H12.25V7C12.25 7.79565 12.5661 8.55871 13.1287 9.12132C13.6913 9.68393 14.4544 10 15.25 10H18.25V19ZM15.25 16H9.25C8.98478 16 8.73043 16.1054 8.54289 16.2929C8.35536 16.4804 8.25 16.7348 8.25 17C8.25 17.2652 8.35536 17.5196 8.54289 17.7071C8.73043 17.8946 8.98478 18 9.25 18H15.25C15.5152 18 15.7696 17.8946 15.9571 17.7071C16.1446 17.5196 16.25 17.2652 16.25 17C16.25 16.7348 16.1446 16.4804 15.9571 16.2929C15.7696 16.1054 15.5152 16 15.25 16Z" fill="#999CA0"/>
</svg>
