<svg width="16" height="18" viewBox="0 0 16 18" fill="none" xmlns="http://www.w3.org/2000/svg">
<path d="M9.77778 7.2V9H11.5556V7.2H9.77778ZM4.44444 9V7.2H6.22222V9H4.44444ZM0 10.8V18H16V10.8H15.1111V7.2C15.1111 3.222 11.9289 0 8 0C4.07111 0 0.888888 3.222 0.888888 7.2V10.8H0ZM12.4444 12.6H14.2222V16.2H12.4444V12.6ZM8.88889 12.6H10.6667V16.2H8.88889V12.6ZM8.88889 1.872C11.4133 2.304 13.3333 4.527 13.3333 7.2V10.8H8.88889V1.872ZM7.11111 10.8H2.66667V7.2C2.66667 4.527 4.58667 2.304 7.11111 1.872V10.8ZM5.33333 12.6H7.11111V16.2H5.33333V12.6ZM1.77778 12.6H3.55556V16.2H1.77778V12.6Z" fill="#999CA0"/>
</svg>
