<svg width="16" height="16" viewBox="0 0 16 16" fill="none" xmlns="http://www.w3.org/2000/svg">
<path d="M3.13905 1C2.6749 1 2.32167 1.17486 2.02349 1.4765C1.72536 1.77817 1.49166 2.21614 1.33439 2.71792C1.13566 3.35204 1.06592 4.08461 1.1019 4.73259C1.12955 4.72971 1.15725 4.72748 1.18498 4.72587C1.46786 4.71133 1.73579 4.76515 1.97806 4.87789C2.46263 5.10338 2.83669 5.53388 3.12771 6.03691C3.63757 6.91813 3.91042 8.03848 3.97027 8.93032C7.8218 8.41965 8.17821 8.41965 12.0298 8.93032C12.0896 8.03844 12.3624 6.91813 12.8723 6.03688C13.1633 5.53388 13.5374 5.10338 14.022 4.87786C14.2878 4.7542 14.5847 4.702 14.8981 4.73259C14.9341 4.08461 14.8643 3.35204 14.6656 2.71792C14.5084 2.21611 14.2747 1.77817 13.9765 1.4765C13.6783 1.17486 13.3251 1 12.861 1H3.13905ZM1.28139 5.36254C1.25823 5.36225 1.2348 5.36276 1.21111 5.36398C1.02136 5.37418 0.812779 5.435 0.57439 5.56178C-0.215954 5.98212 -0.315063 7.92028 1.07466 8.413L1.22674 8.46693L2.28805 12.4178H13.712L14.7733 8.46693L14.9253 8.413C16.3151 7.92028 16.216 5.98212 15.4256 5.56178C14.9489 5.30825 14.5911 5.31852 14.2655 5.47004C13.9399 5.62156 13.6388 5.94507 13.3897 6.37557C12.8915 7.23672 12.6247 8.50417 12.6247 9.29408V9.66013L12.2831 9.61471C7.9623 9.04023 8.03771 9.04023 3.71686 9.61471L3.37535 9.66013V9.29408C3.37535 8.50417 3.10847 7.23672 2.61029 6.3756C2.36116 5.94507 2.06012 5.62156 1.73454 5.47008C1.59208 5.40376 1.44342 5.36452 1.28139 5.36254ZM2.18465 13.0641L1.39906 13.8997C1.80394 14.016 2.53835 14.0348 2.83524 13.8398C2.94569 13.6713 3.06826 13.3179 3.18759 13.0641H2.18465ZM12.8125 13.0641C12.8629 13.2802 13.0471 13.7506 13.1648 13.8398C13.6104 14.036 14.1742 14.0472 14.6009 13.8997L13.8154 13.0641H12.8125Z" fill="#999CA0"/>
</svg>
