<svg width="16" height="16" viewBox="0 0 16 16" fill="none" xmlns="http://www.w3.org/2000/svg">
<g clip-path="url(#clip0_31024_110987)">
<path d="M11.3368 14.2622L11.6447 14.8435C11.7102 14.9672 11.8652 15.0118 11.9869 14.9424C12.3243 14.7499 12.6479 14.5326 12.9531 14.2938C13.0633 14.2074 13.0804 14.0472 12.9905 13.9398L12.5687 13.4367C12.4831 13.3346 12.3316 13.3177 12.2264 13.3996C11.9753 13.5951 11.7096 13.7734 11.4329 13.9323C11.3172 13.9988 11.2744 14.1443 11.3368 14.2622Z" fill="#999CA0"/>
<path d="M13.5997 12.3719L14.1171 12.7758C14.2275 12.8619 14.3872 12.8394 14.4699 12.7265C14.6986 12.4138 14.905 12.0839 15.0866 11.741C15.1521 11.6172 15.1023 11.464 14.9765 11.4026L14.3849 11.1139C14.2651 11.0554 14.1208 11.1029 14.0581 11.2206C13.9081 11.5021 13.7384 11.7734 13.551 12.031C13.4725 12.1389 13.4944 12.2898 13.5997 12.3719Z" fill="#999CA0"/>
<path d="M14.848 8.48338C14.8251 8.8008 14.78 9.11744 14.7131 9.42941C14.6851 9.55981 14.7648 9.68898 14.8942 9.72147L15.5327 9.88168C15.6686 9.91573 15.8055 9.83061 15.8352 9.69388C15.9178 9.31459 15.9727 8.92919 15.9993 8.54268C16.0089 8.40305 15.9012 8.28312 15.7612 8.278L15.1048 8.25408C14.9716 8.24918 14.8576 8.35043 14.848 8.48338Z" fill="#999CA0"/>
<path d="M14.4524 5.65807C14.5585 5.95814 14.6438 6.26643 14.7073 6.57907C14.7338 6.70969 14.8586 6.79636 14.9902 6.77444L15.6396 6.6663C15.7777 6.64327 15.8691 6.51054 15.8417 6.37335C15.7656 5.99274 15.6617 5.61746 15.5315 5.25265C15.4845 5.1208 15.3377 5.05394 15.2074 5.10512L14.5962 5.34532C14.4719 5.39406 14.4078 5.53235 14.4524 5.65807Z" fill="#999CA0"/>
<path d="M14.2023 3.85042L13.4395 0.862565C13.4086 0.741849 13.2586 0.699682 13.1693 0.786798L12.633 1.30971C12.5785 1.36278 12.4943 1.37113 12.4308 1.32918C11.9045 0.981167 11.3381 0.696567 10.7409 0.480503C9.97618 0.203802 9.1766 0.044925 8.36422 0.00820965C7.54136 -0.0289508 6.7224 0.0601675 5.92996 0.273005C5.11067 0.493075 4.33247 0.842427 3.61688 1.31127C2.71316 1.90339 1.95245 2.65483 1.35581 3.54479C0.779653 4.40415 0.380366 5.35552 0.168749 6.37243C-0.0427559 7.38933 -0.0557871 8.42081 0.12999 9.43827C0.322338 10.492 0.720512 11.484 1.31326 12.3867C1.90601 13.2895 2.65825 14.0494 3.54916 14.6454C4.40944 15.2209 5.36171 15.6199 6.3797 15.8312C6.92188 15.9438 7.4683 16.0001 8.01449 16.0001C8.19693 16.0001 8.37925 15.9936 8.56147 15.9811V15.9814C8.64812 15.9753 8.73677 15.9676 8.82732 15.9583C9.00853 15.9396 9.1815 15.9155 9.34578 15.8879V15.8874C9.55306 15.8521 9.75899 15.8087 9.96292 15.7573C10.0989 15.7231 10.18 15.5836 10.1412 15.4489L9.95969 14.8174C9.92283 14.689 9.79073 14.6136 9.66098 14.6458C9.55651 14.6719 9.45137 14.6955 9.34578 14.7165V14.7155C8.90629 14.8022 8.462 14.8449 8.01928 14.8449C5.78472 14.8448 3.59148 13.757 2.27701 11.7551C0.204056 8.59816 1.08872 4.34496 4.24905 2.2741C5.39323 1.52433 6.70291 1.15273 8.01004 1.15273C9.22661 1.15273 10.4407 1.47504 11.516 2.11423C11.6075 2.16863 11.6227 2.29491 11.5464 2.36923L11.1033 2.80125C11.0141 2.88825 11.0526 3.03923 11.1727 3.07294L14.1447 3.9066C14.1792 3.91617 14.2112 3.88502 14.2023 3.85042Z" fill="#999CA0"/>
<path d="M10.9212 11.2163C10.8007 11.2163 10.68 11.1723 10.5851 11.0835L7.51709 8.21285V2.97179C7.51709 2.70043 7.73728 2.48047 8.00893 2.48047C8.28058 2.48047 8.50077 2.70043 8.50077 2.97179V7.78684L11.2576 10.3664C11.4558 10.5518 11.466 10.8628 11.2803 11.0607C11.1835 11.1641 11.0525 11.2163 10.9212 11.2163Z" fill="#999CA0"/>
</g>
<defs>
<clipPath id="clip0_31024_110987">
<rect width="16" height="16" fill="white"/>
</clipPath>
</defs>
</svg>
