<svg width="16" height="16" viewBox="0 0 16 16" fill="none" xmlns="http://www.w3.org/2000/svg">
<g clip-path="url(#clip0_31024_111000)">
<path d="M6.95968 3.5203H10.4374V2.43893C10.4374 2.31782 10.5325 2.22266 10.6537 2.22266H14.114C14.2352 2.22266 14.3303 2.31782 14.3303 2.43893V5.89933C14.3303 6.02044 14.2352 6.1156 14.114 6.1156H10.6537C10.5325 6.1156 10.4374 6.02044 10.4374 5.89933V4.81795H7.04619C7.1327 4.64061 7.18461 4.45029 7.18461 4.24699C7.18461 3.98746 7.10675 3.73658 6.95968 3.5203Z" fill="#999CA0"/>
<path d="M11.7395 11.0989V7.20167H13.0371V11.0989L15.0355 14.4425C15.122 14.5853 15.0182 14.7713 14.8495 14.7713H9.93141C9.76271 14.7713 9.6589 14.5896 9.74541 14.4425L11.7395 11.0989ZM0.999264 4.09597L3.36531 1.72992C3.45182 1.64341 3.58591 1.64341 3.67242 1.72992L6.03846 4.09597C6.12497 4.18248 6.12497 4.31657 6.03846 4.40308L4.16552 6.27601V9.86617C3.9579 9.81859 3.74163 9.79264 3.5167 9.79264C3.29177 9.79264 3.0755 9.81859 2.86788 9.86617V6.27601L0.994939 4.40308C0.912755 4.31657 0.912754 4.18248 0.999264 4.09597ZM3.52103 10.874C4.36882 10.874 5.0782 11.419 5.34639 12.1717H9.83625L9.06198 13.4693H5.34639C5.0782 14.2219 4.3645 14.767 3.52103 14.767C2.44398 14.767 1.57455 13.8975 1.57455 12.8205C1.57455 11.7478 2.44398 10.874 3.52103 10.874Z" fill="#999CA0"/>
</g>
<defs>
<clipPath id="clip0_31024_111000">
<rect width="16" height="16" fill="white" transform="matrix(-1 0 0 1 16 0)"/>
</clipPath>
</defs>
</svg>
