<svg width="25" height="24" viewBox="0 0 25 24" fill="none" xmlns="http://www.w3.org/2000/svg">
<path d="M19.9401 13.0004C19.7201 13.0004 19.4901 12.9304 19.2701 12.8804C18.8246 12.7822 18.3868 12.6518 17.9601 12.4904C17.4962 12.3216 16.9862 12.3304 16.5284 12.515C16.0706 12.6996 15.6972 13.047 15.4801 13.4904L15.2601 13.9404C14.2861 13.3985 13.3911 12.7256 12.6001 11.9404C11.8149 11.1494 11.1419 10.2544 10.6001 9.28036L11.0201 9.00036C11.4635 8.78327 11.8109 8.40989 11.9955 7.95205C12.1801 7.49421 12.1889 6.98427 12.0201 6.52036C11.8613 6.09278 11.731 5.65515 11.6301 5.21036C11.5801 4.99036 11.5401 4.76036 11.5101 4.53036C11.3887 3.82598 11.0197 3.1881 10.4697 2.7316C9.91972 2.27509 9.2248 2.02997 8.5101 2.04036H5.5101C5.07913 2.03631 4.65235 2.12517 4.25881 2.30089C3.86527 2.4766 3.51421 2.73505 3.22953 3.05864C2.94485 3.38222 2.73324 3.76335 2.60909 4.17607C2.48494 4.58879 2.45118 5.02342 2.5101 5.45036C3.04284 9.63974 4.95613 13.5322 7.94775 16.513C10.9394 19.4938 14.8388 21.3929 19.0301 21.9104H19.4101C20.1475 21.9114 20.8595 21.6409 21.4101 21.1504C21.7265 20.8674 21.9792 20.5205 22.1516 20.1327C22.3239 19.7448 22.4121 19.3248 22.4101 18.9004V15.9004C22.3979 15.2057 22.1449 14.5369 21.6944 14.008C21.244 13.4791 20.6239 13.123 19.9401 13.0004ZM20.4401 19.0004C20.4399 19.1423 20.4095 19.2827 20.3509 19.412C20.2923 19.5413 20.2068 19.6566 20.1001 19.7504C19.9884 19.8468 19.8577 19.9189 19.7165 19.962C19.5753 20.005 19.4267 20.0181 19.2801 20.0004C15.535 19.5202 12.0563 17.8068 9.39282 15.1306C6.7293 12.4545 5.03251 8.96769 4.5701 5.22036C4.55419 5.07387 4.56813 4.92569 4.6111 4.78475C4.65407 4.64381 4.72517 4.51304 4.8201 4.40036C4.91381 4.29369 5.02916 4.2082 5.15848 4.14957C5.2878 4.09095 5.42812 4.06054 5.5701 4.06036H8.5701C8.80265 4.05518 9.02972 4.13124 9.21224 4.27543C9.39476 4.41962 9.52131 4.62293 9.5701 4.85036C9.6101 5.12369 9.6601 5.39369 9.7201 5.66036C9.83562 6.1875 9.98936 6.70554 10.1801 7.21036L8.7801 7.86036C8.6604 7.91528 8.55272 7.9933 8.46326 8.08995C8.37379 8.1866 8.3043 8.29997 8.25877 8.42355C8.21324 8.54713 8.19257 8.67849 8.19795 8.81008C8.20332 8.94167 8.23464 9.0709 8.2901 9.19036C9.7293 12.2731 12.2073 14.7512 15.2901 16.1904C15.5336 16.2904 15.8066 16.2904 16.0501 16.1904C16.1748 16.1457 16.2894 16.0768 16.3873 15.9875C16.4851 15.8983 16.5643 15.7905 16.6201 15.6704L17.2401 14.2704C17.7571 14.4552 18.2847 14.6088 18.8201 14.7304C19.0868 14.7904 19.3568 14.8404 19.6301 14.8804C19.8575 14.9291 20.0608 15.0557 20.205 15.2382C20.3492 15.4207 20.4253 15.6478 20.4201 15.8804L20.4401 19.0004Z" fill="white"/>
</svg>
