<svg width="24" height="24" viewBox="0 0 24 24" fill="none" xmlns="http://www.w3.org/2000/svg">
<path d="M20.47 8.99987C20.6678 8.99987 20.8611 8.94122 21.0256 8.83134C21.19 8.72146 21.3182 8.56528 21.3939 8.38255C21.4696 8.19983 21.4894 7.99876 21.4508 7.80478C21.4122 7.6108 21.317 7.43261 21.1771 7.29276C21.0372 7.15291 20.8591 7.05767 20.6651 7.01908C20.4711 6.9805 20.27 7.0003 20.0873 7.07599C19.9046 7.15168 19.7484 7.27985 19.6385 7.4443C19.5286 7.60875 19.47 7.80209 19.47 7.99987C19.47 8.26508 19.5754 8.51944 19.7629 8.70697C19.9504 8.89451 20.2048 8.99987 20.47 8.99987ZM17.47 8.99987C17.6678 8.99987 17.8611 8.94122 18.0256 8.83134C18.19 8.72146 18.3182 8.56528 18.3939 8.38255C18.4696 8.19983 18.4894 7.99876 18.4508 7.80478C18.4122 7.6108 18.317 7.43261 18.1771 7.29276C18.0372 7.15291 17.8591 7.05767 17.6651 7.01908C17.4711 6.9805 17.27 7.0003 17.0873 7.07599C16.9046 7.15168 16.7484 7.27985 16.6385 7.4443C16.5286 7.60875 16.47 7.80209 16.47 7.99987C16.47 8.26508 16.5754 8.51944 16.7629 8.70697C16.9504 8.89451 17.2048 8.99987 17.47 8.99987ZM14.47 8.99987C14.6678 8.99987 14.8611 8.94122 15.0256 8.83134C15.19 8.72146 15.3182 8.56528 15.3939 8.38255C15.4696 8.19983 15.4894 7.99876 15.4508 7.80478C15.4122 7.6108 15.317 7.43261 15.1771 7.29276C15.0372 7.15291 14.8591 7.05767 14.6651 7.01908C14.4711 6.9805 14.27 7.0003 14.0873 7.07599C13.9046 7.15168 13.7484 7.27985 13.6385 7.4443C13.5286 7.60875 13.47 7.80209 13.47 7.99987C13.47 8.13119 13.4959 8.26123 13.5461 8.38255C13.5964 8.50388 13.67 8.61412 13.7629 8.70697C13.8557 8.79983 13.966 8.87349 14.0873 8.92375C14.2086 8.974 14.3387 8.99987 14.47 8.99987ZM18.91 12.9999C18.69 12.9999 18.46 12.9299 18.24 12.8799C17.7945 12.7817 17.3567 12.6514 16.93 12.4899C16.4661 12.3211 15.9561 12.3299 15.4983 12.5145C15.0405 12.6991 14.6671 13.0465 14.45 13.4899L14.23 13.9399C13.2545 13.3957 12.3565 12.723 11.56 11.9399C10.7807 11.1438 10.1083 10.2496 9.55999 9.27987L9.99999 8.99987C10.4434 8.78278 10.7908 8.4094 10.9754 7.95156C11.16 7.49372 11.1688 6.98378 11 6.51987C10.8412 6.09229 10.7109 5.65467 10.61 5.20987C10.56 4.97987 10.52 4.75987 10.49 4.52987C10.3686 3.82549 9.99962 3.18761 9.44962 2.73111C8.89961 2.2746 8.20469 2.02948 7.48999 2.03987H4.48999C4.06724 2.03931 3.64914 2.12812 3.26311 2.30045C2.87708 2.47279 2.53183 2.72477 2.24999 3.03987C1.96368 3.36236 1.75027 3.7428 1.62429 4.15524C1.49832 4.56768 1.46274 5.00243 1.51999 5.42987C2.04671 9.61691 3.95237 13.5094 6.93639 16.4935C9.92041 19.4775 13.813 21.3832 18 21.9099C18.1298 21.9198 18.2602 21.9198 18.39 21.9099C19.1856 21.9099 19.9487 21.5938 20.5113 21.0312C21.0739 20.4686 21.39 19.7055 21.39 18.9099V15.9099C21.3796 15.2121 21.1263 14.5398 20.6736 14.0086C20.221 13.4775 19.5973 13.1208 18.91 12.9999ZM19.4 18.9999C19.4016 19.1448 19.3717 19.2884 19.3124 19.4207C19.253 19.5529 19.1656 19.6707 19.0562 19.7658C18.9468 19.8609 18.8181 19.9311 18.6789 19.9715C18.5397 20.012 18.3933 20.0216 18.25 19.9999C14.5161 19.5126 11.0471 17.808 8.37999 15.1499C5.71499 12.4647 4.01324 8.97331 3.53999 5.21987C3.51827 5.0732 3.52943 4.92354 3.57267 4.78172C3.61591 4.6399 3.69014 4.50947 3.78999 4.39987C3.88259 4.29445 3.99632 4.2097 4.12382 4.15113C4.25131 4.09255 4.3897 4.06146 4.52999 4.05987H7.52999C7.76254 4.05469 7.98962 4.13075 8.17214 4.27494C8.35466 4.41913 8.4812 4.62244 8.52999 4.84987C8.56999 5.1232 8.61999 5.3932 8.67999 5.65987C8.79551 6.18701 8.94925 6.70505 9.13999 7.20987L7.73999 7.85987C7.62029 7.91479 7.51262 7.99281 7.42315 8.08946C7.33369 8.18611 7.26419 8.29948 7.21867 8.42306C7.17314 8.54664 7.15247 8.678 7.15784 8.80959C7.16322 8.94118 7.19454 9.07041 7.24999 9.18987C8.68919 12.2726 11.1672 14.7507 14.25 16.1899C14.4935 16.2899 14.7665 16.2899 15.01 16.1899C15.2581 16.0975 15.4595 15.9105 15.57 15.6699L16.2 14.2699C16.717 14.4547 17.2446 14.6084 17.78 14.7299C18.04 14.7899 18.32 14.8399 18.59 14.8799C18.8156 14.9307 19.0166 15.0581 19.1588 15.2404C19.301 15.4227 19.3756 15.6487 19.37 15.8799L19.4 18.9999Z" fill="#999CA0"/>
</svg>
