<svg width="25" height="24" viewBox="0 0 25 24" fill="none" xmlns="http://www.w3.org/2000/svg">
<path d="M20.6665 6H16.6665V5C16.6665 4.20435 16.3504 3.44129 15.7878 2.87868C15.2252 2.31607 14.4622 2 13.6665 2H11.6665C10.8709 2 10.1078 2.31607 9.54518 2.87868C8.98257 3.44129 8.6665 4.20435 8.6665 5V6H4.6665C4.40129 6 4.14693 6.10536 3.9594 6.29289C3.77186 6.48043 3.6665 6.73478 3.6665 7C3.6665 7.26522 3.77186 7.51957 3.9594 7.70711C4.14693 7.89464 4.40129 8 4.6665 8H5.6665V19C5.6665 19.7956 5.98257 20.5587 6.54518 21.1213C7.10779 21.6839 7.87085 22 8.6665 22H16.6665C17.4622 22 18.2252 21.6839 18.7878 21.1213C19.3504 20.5587 19.6665 19.7956 19.6665 19V8H20.6665C20.9317 8 21.1861 7.89464 21.3736 7.70711C21.5611 7.51957 21.6665 7.26522 21.6665 7C21.6665 6.73478 21.5611 6.48043 21.3736 6.29289C21.1861 6.10536 20.9317 6 20.6665 6ZM10.6665 5C10.6665 4.73478 10.7719 4.48043 10.9594 4.29289C11.1469 4.10536 11.4013 4 11.6665 4H13.6665C13.9317 4 14.1861 4.10536 14.3736 4.29289C14.5611 4.48043 14.6665 4.73478 14.6665 5V6H10.6665V5ZM17.6665 19C17.6665 19.2652 17.5611 19.5196 17.3736 19.7071C17.1861 19.8946 16.9317 20 16.6665 20H8.6665C8.40129 20 8.14693 19.8946 7.9594 19.7071C7.77186 19.5196 7.6665 19.2652 7.6665 19V8H17.6665V19Z" fill="white"/>
</svg>
