<svg width="25" height="24" viewBox="0 0 25 24" fill="none" xmlns="http://www.w3.org/2000/svg">
<path d="M13.8 12.22C14.3336 11.7581 14.7616 11.1869 15.0549 10.545C15.3482 9.90316 15.5 9.20571 15.5 8.5C15.5 7.17392 14.9732 5.90215 14.0355 4.96447C13.0979 4.02678 11.8261 3.5 10.5 3.5C9.17392 3.5 7.90215 4.02678 6.96447 4.96447C6.02678 5.90215 5.5 7.17392 5.5 8.5C5.49999 9.20571 5.6518 9.90316 5.94513 10.545C6.23845 11.1869 6.66642 11.7581 7.2 12.22C5.80014 12.8539 4.61247 13.8775 3.77898 15.1685C2.9455 16.4596 2.50147 17.9633 2.5 19.5C2.5 19.7652 2.60536 20.0196 2.79289 20.2071C2.98043 20.3946 3.23478 20.5 3.5 20.5C3.76522 20.5 4.01957 20.3946 4.20711 20.2071C4.39464 20.0196 4.5 19.7652 4.5 19.5C4.5 17.9087 5.13214 16.3826 6.25736 15.2574C7.38258 14.1321 8.9087 13.5 10.5 13.5C12.0913 13.5 13.6174 14.1321 14.7426 15.2574C15.8679 16.3826 16.5 17.9087 16.5 19.5C16.5 19.7652 16.6054 20.0196 16.7929 20.2071C16.9804 20.3946 17.2348 20.5 17.5 20.5C17.7652 20.5 18.0196 20.3946 18.2071 20.2071C18.3946 20.0196 18.5 19.7652 18.5 19.5C18.4985 17.9633 18.0545 16.4596 17.221 15.1685C16.3875 13.8775 15.1999 12.8539 13.8 12.22ZM10.5 11.5C9.90666 11.5 9.32664 11.3241 8.83329 10.9944C8.33994 10.6648 7.95542 10.1962 7.72836 9.64805C7.5013 9.09987 7.44189 8.49667 7.55764 7.91473C7.6734 7.33279 7.95912 6.79824 8.37868 6.37868C8.79824 5.95912 9.33279 5.6734 9.91473 5.55764C10.4967 5.44189 11.0999 5.5013 11.6481 5.72836C12.1962 5.95542 12.6648 6.33994 12.9944 6.83329C13.3241 7.32664 13.5 7.90666 13.5 8.5C13.5 9.29565 13.1839 10.0587 12.6213 10.6213C12.0587 11.1839 11.2956 11.5 10.5 11.5ZM21.41 12L22.21 11.21C22.3032 11.1168 22.3772 11.0061 22.4277 10.8842C22.4781 10.7624 22.5041 10.6319 22.5041 10.5C22.5041 10.3681 22.4781 10.2376 22.4277 10.1158C22.3772 9.99393 22.3032 9.88324 22.21 9.79C22.1168 9.69676 22.0061 9.6228 21.8842 9.57234C21.7624 9.52188 21.6319 9.49591 21.5 9.49591C21.3681 9.49591 21.2376 9.52188 21.1158 9.57234C20.9939 9.6228 20.8832 9.69676 20.79 9.79L20 10.59L19.21 9.79C19.1168 9.69676 19.0061 9.6228 18.8842 9.57234C18.7624 9.52188 18.6319 9.49591 18.5 9.49591C18.2337 9.49591 17.9783 9.6017 17.79 9.79C17.6968 9.88324 17.6228 9.99393 17.5723 10.1158C17.5219 10.2376 17.4959 10.3681 17.4959 10.5C17.4959 10.7663 17.6017 11.0217 17.79 11.21L18.59 12L17.79 12.79C17.6963 12.883 17.6219 12.9936 17.5711 13.1154C17.5203 13.2373 17.4942 13.368 17.4942 13.5C17.4942 13.632 17.5203 13.7627 17.5711 13.8846C17.6219 14.0064 17.6963 14.117 17.79 14.21C17.883 14.3037 17.9936 14.3781 18.1154 14.4289C18.2373 14.4797 18.368 14.5058 18.5 14.5058C18.632 14.5058 18.7627 14.4797 18.8846 14.4289C19.0064 14.3781 19.117 14.3037 19.21 14.21L20 13.41L20.79 14.21C20.883 14.3037 20.9936 14.3781 21.1154 14.4289C21.2373 14.4797 21.368 14.5058 21.5 14.5058C21.632 14.5058 21.7627 14.4797 21.8846 14.4289C22.0064 14.3781 22.117 14.3037 22.21 14.21C22.3037 14.117 22.3781 14.0064 22.4289 13.8846C22.4797 13.7627 22.5058 13.632 22.5058 13.5C22.5058 13.368 22.4797 13.2373 22.4289 13.1154C22.3781 12.9936 22.3037 12.883 22.21 12.79L21.41 12Z" fill="#999CA0"/>
</svg>
