<svg width="14" height="20" viewBox="0 0 14 20" fill="none" xmlns="http://www.w3.org/2000/svg">
<path d="M3.5 15.593H10.5V13.7287H3.5V15.593ZM3.5 11.8643H10.5V9.99996H3.5V11.8643ZM1.75 19.3217C1.26875 19.3217 0.856917 19.1393 0.5145 18.7745C0.1715 18.4091 0 17.97 0 17.4574V2.54257C0 2.02987 0.1715 1.59082 0.5145 1.22541C0.856917 0.860618 1.26875 0.678223 1.75 0.678223H8.75L14 6.27127V17.4574C14 17.97 13.8288 18.4091 13.4864 18.7745C13.1434 19.1393 12.7312 19.3217 12.25 19.3217H1.75ZM7.875 7.20344V2.54257H1.75V17.4574H12.25V7.20344H7.875ZM1.75 2.54257V7.20344V2.54257V17.4574V2.54257Z" fill="#999CA0"/>
</svg>
