<svg width="10" height="16" viewBox="0 0 10 16" fill="none" xmlns="http://www.w3.org/2000/svg">
<path d="M0.615385 0C0.615385 0 0 4.30769 0 4.92308C0 5.53846 1.38462 6.76923 1.38462 6.76923L1.23077 14.9809C1.23077 15.6603 1.78215 16 2.46154 16C3.14092 16 3.69231 15.6603 3.69231 14.9809L3.53846 6.76923C3.53846 6.76923 4.92308 5.51262 4.92308 4.92308C4.92308 4.33354 4.30769 0 4.30769 0H3.69231V4C3.69231 4.08161 3.65989 4.15987 3.60219 4.21757C3.54448 4.27527 3.46622 4.30769 3.38462 4.30769C3.30301 4.30769 3.22475 4.27527 3.16704 4.21757C3.10934 4.15987 3.07692 4.08161 3.07692 4C3.07692 3.94277 2.86523 0 2.86523 0H2.05785C2.05785 0 1.84615 3.94277 1.84615 4C1.84615 4.08161 1.81374 4.15987 1.75603 4.21757C1.69833 4.27527 1.62007 4.30769 1.53846 4.30769C1.45686 4.30769 1.37859 4.27527 1.32089 4.21757C1.26319 4.15987 1.23077 4.08161 1.23077 4V0H0.615385ZM7.21169 0.0387692C6.84923 0.125538 6.76923 0.513846 6.76923 0.941538V14.9803C6.76923 15.6597 7.32062 15.9994 8 15.9994C8.67939 15.9994 9.21169 15.6591 9.21169 14.9803C9.21169 11.8498 8.59631 10.1809 8.59631 8.61477C8.59631 7.90831 9.84615 6.99877 9.84615 3.71077C9.84615 1.69969 8.064 0.0381538 7.38462 0.0381538C7.32062 0.0381538 7.26338 0.0258462 7.21169 0.0381538V0.0387692Z" fill="#999CA0"/>
</svg>
