<svg width="16" height="16" viewBox="0 0 16 16" fill="none" xmlns="http://www.w3.org/2000/svg">
<path d="M6.00008 11.9998C5.42386 12.4341 4.72163 12.6684 4.00008 12.6671C3.27875 12.6684 2.57665 12.4346 2.00008 12.0011V14.1651C1.99991 14.2507 2.02172 14.3349 2.06342 14.4097C2.10512 14.4844 2.16532 14.5472 2.23825 14.5921C2.31118 14.6369 2.39439 14.6622 2.47993 14.6657C2.56546 14.6691 2.65045 14.6506 2.72675 14.6118L2.78675 14.5751L4.00008 13.7271L5.21341 14.5751C5.28349 14.624 5.36493 14.6542 5.44997 14.6627C5.53501 14.6712 5.62081 14.6577 5.69917 14.6236C5.77754 14.5895 5.84585 14.5359 5.8976 14.4679C5.94934 14.3999 5.98279 14.3197 5.99475 14.2351L5.99941 14.1651L6.00008 12.0004V11.9998ZM3.16675 2.00244C2.69989 2.00242 2.25061 2.1805 1.91055 2.50037C1.57049 2.82024 1.36527 3.25779 1.33675 3.72377L1.33341 3.83577L1.33275 7.33311C1.6031 6.97317 1.9432 6.67139 2.33275 6.44577L2.33341 3.83577C2.33332 3.62947 2.40976 3.43046 2.54793 3.27726C2.6861 3.12407 2.87619 3.02757 3.08141 3.00644L3.16675 3.00244H12.8334C13.0397 3.00235 13.2387 3.07878 13.3919 3.21696C13.5451 3.35513 13.6416 3.54522 13.6627 3.75044L13.6667 3.83577V10.1691C13.6667 10.6004 13.3387 10.9558 12.9187 10.9978L12.8334 11.0024H6.88675C6.82008 11.1171 6.74675 11.2278 6.66675 11.3331V12.0024H12.8334C13.3004 12.0025 13.7498 11.8243 14.0898 11.5043C14.4299 11.1843 14.6351 10.7465 14.6634 10.2804L14.6667 10.1691V3.83577C14.6668 3.36892 14.4887 2.91964 14.1688 2.57958C13.849 2.23952 13.4114 2.0343 12.9454 2.00577L12.8334 2.00244H3.16675ZM4.00008 6.66644C3.29284 6.66644 2.61456 6.94739 2.11446 7.44749C1.61437 7.94759 1.33341 8.62586 1.33341 9.33311C1.33341 10.0404 1.61437 10.7186 2.11446 11.2187C2.61456 11.7188 3.29284 11.9998 4.00008 11.9998C4.70732 11.9998 5.3856 11.7188 5.8857 11.2187C6.3858 10.7186 6.66675 10.0404 6.66675 9.33311C6.66675 8.62586 6.3858 7.94759 5.8857 7.44749C5.3856 6.94739 4.70732 6.66644 4.00008 6.66644ZM8.50008 8.33311C8.3734 8.33315 8.25145 8.38127 8.15889 8.46776C8.06632 8.55424 8.01003 8.67264 8.0014 8.79903C7.99276 8.92542 8.03242 9.05037 8.11237 9.14864C8.19231 9.24691 8.30658 9.31117 8.43208 9.32844L8.50008 9.33311H11.5001C11.6268 9.33307 11.7487 9.28494 11.8413 9.19846C11.9338 9.11197 11.9901 8.99358 11.9988 8.86719C12.0074 8.7408 11.9677 8.61585 11.8878 8.51758C11.8078 8.4193 11.6936 8.35504 11.5681 8.33777L11.5001 8.33311H8.50008ZM4.50008 4.66644C4.3734 4.66648 4.25145 4.7146 4.15889 4.80109C4.06632 4.88758 4.01003 5.00597 4.0014 5.13236C3.99276 5.25875 4.03242 5.3837 4.11237 5.48197C4.19231 5.58025 4.30658 5.64451 4.43208 5.66177L4.50008 5.66644H11.5001C11.6268 5.6664 11.7487 5.61828 11.8413 5.53179C11.9338 5.44531 11.9901 5.32691 11.9988 5.20052C12.0074 5.07413 11.9677 4.94918 11.8878 4.85091C11.8078 4.75264 11.6936 4.68838 11.5681 4.67111L11.5001 4.66644H4.50008Z" fill="#999CA0"/>
</svg>
