<svg width="16" height="16" viewBox="0 0 16 16" fill="none" xmlns="http://www.w3.org/2000/svg">
<path d="M3 3.09981V12.8998C3 13.0855 3.07726 13.2635 3.21479 13.3948C3.35232 13.526 3.53884 13.5998 3.73333 13.5998H5.93333V12.1998H4.46667V3.7998H5.93333V2.39981H3.73333C3.53884 2.39981 3.35232 2.47356 3.21479 2.60483C3.07726 2.73611 3 2.91415 3 3.09981ZM13.4441 2.42081L7.57747 1.02081C7.46939 0.995075 7.35659 0.993184 7.24762 1.01528C7.13866 1.03737 7.03641 1.08287 6.94862 1.14832C6.86083 1.21376 6.78981 1.29744 6.74096 1.393C6.6921 1.48855 6.6667 1.59348 6.66667 1.69981V14.2998C6.66641 14.4062 6.69163 14.5113 6.7404 14.607C6.78916 14.7027 6.86019 14.7865 6.94805 14.852C7.03592 14.9175 7.1383 14.963 7.24738 14.9849C7.35646 15.0069 7.46936 15.0048 7.57747 14.9788L13.4441 13.5788C13.6029 13.541 13.7438 13.4537 13.8445 13.3306C13.9452 13.2076 14 13.0559 14 12.8998V3.09981C14 2.94366 13.9452 2.79202 13.8445 2.66898C13.7438 2.54595 13.6029 2.45859 13.4441 2.42081ZM10.3333 8.1314C10.3249 8.31164 10.2439 8.48182 10.1073 8.60651C9.97073 8.7312 9.78901 8.80079 9.6 8.80079C9.41099 8.80079 9.22927 8.7312 9.09267 8.60651C8.95606 8.48182 8.87511 8.31164 8.86667 8.1314V7.8675C8.86676 7.68185 8.94412 7.50384 9.08171 7.37263C9.21931 7.24142 9.40587 7.16776 9.60037 7.16785C9.79486 7.16795 9.98135 7.24178 10.1188 7.37313C10.2563 7.50447 10.3334 7.68255 10.3333 7.8682V8.1314Z" fill="#999CA0"/>
</svg>
