<svg width="25" height="24" viewBox="0 0 25 24" fill="none" xmlns="http://www.w3.org/2000/svg">
<path d="M5.33325 17.9999H9.57325C9.70486 18.0007 9.83532 17.9755 9.95716 17.9257C10.079 17.8759 10.1898 17.8026 10.2833 17.7099L17.2033 10.7799L20.0433 7.99994C20.137 7.90698 20.2114 7.79637 20.2621 7.67452C20.3129 7.55266 20.3391 7.42195 20.3391 7.28994C20.3391 7.15793 20.3129 7.02722 20.2621 6.90536C20.2114 6.7835 20.137 6.6729 20.0433 6.57994L15.8033 2.28994C15.7103 2.19621 15.5997 2.12182 15.4778 2.07105C15.356 2.02028 15.2253 1.99414 15.0933 1.99414C14.9612 1.99414 14.8305 2.02028 14.7087 2.07105C14.5868 2.12182 14.4762 2.19621 14.3833 2.28994L11.5633 5.11994L4.62325 12.0499C4.53057 12.1434 4.45725 12.2542 4.40748 12.376C4.35772 12.4979 4.33249 12.6283 4.33325 12.7599V16.9999C4.33325 17.2652 4.43861 17.5195 4.62615 17.707C4.81368 17.8946 5.06804 17.9999 5.33325 17.9999ZM15.0933 4.40994L17.9233 7.23994L16.5033 8.65994L13.6733 5.82994L15.0933 4.40994ZM6.33325 13.1699L12.2633 7.23994L15.0933 10.0699L9.16325 15.9999H6.33325V13.1699ZM21.3333 19.9999H3.33325C3.06804 19.9999 2.81368 20.1053 2.62615 20.2928C2.43861 20.4804 2.33325 20.7347 2.33325 20.9999C2.33325 21.2652 2.43861 21.5195 2.62615 21.707C2.81368 21.8946 3.06804 21.9999 3.33325 21.9999H21.3333C21.5985 21.9999 21.8528 21.8946 22.0404 21.707C22.2279 21.5195 22.3333 21.2652 22.3333 20.9999C22.3333 20.7347 22.2279 20.4804 22.0404 20.2928C21.8528 20.1053 21.5985 19.9999 21.3333 19.9999Z" fill="white"/>
</svg>
