<svg width="16" height="16" viewBox="0 0 16 16" fill="none" xmlns="http://www.w3.org/2000/svg">
<g clip-path="url(#clip0_30949_32881)">
<path d="M11.9753 0.0171464C11.4614 0.996938 10.9741 1.93019 10.4846 2.86099C10.0018 3.782 9.52124 4.70055 9.01618 5.6632H14C11.5036 9.14636 9.04733 12.5732 6.59324 16C6.57767 15.9927 6.5621 15.9853 6.54652 15.9804C7.02265 13.8322 7.49879 11.6816 7.98159 9.50398H3C3.19357 9.12431 3.36044 8.78138 3.53843 8.44336C4.42395 6.76301 5.31169 5.08267 6.19721 3.40233C6.75566 2.34415 7.31189 1.28353 7.86145 0.220453C7.94377 0.0661359 8.03054 0 8.19741 0C9.38774 0.00734844 10.5759 0.00489896 11.7662 0.00489896C11.8218 0.00489896 11.8752 0.0122474 11.9775 0.0171464H11.9753Z" fill="#999CA0"/>
</g>
<defs>
<clipPath id="clip0_30949_32881">
<rect width="11" height="16" fill="white" transform="translate(3)"/>
</clipPath>
</defs>
</svg>
