<svg width="14" height="18" viewBox="0 0 14 18" fill="none" xmlns="http://www.w3.org/2000/svg">
<path d="M1.7464 0.777344V2.88757H9.24134V0.777344H1.7464ZM3.9403 1.25033H5.10457L4.52244 2.41459L3.9403 1.25033ZM6.65813 1.25033L7.24026 2.41459H6.076L6.65813 1.25033ZM0 4.48843V17.2226H5.16642V4.48843H0ZM5.82132 4.48843V17.2226H10.9877V4.48843H5.82132ZM12.1156 9.61847V12.6747H14.0075V9.61847H12.1156ZM13.0616 10.5644C13.216 10.5644 13.364 10.6258 13.4732 10.7349C13.5824 10.8441 13.6437 10.9922 13.6437 11.1466C13.6437 11.301 13.5824 11.449 13.4732 11.5582C13.364 11.6674 13.216 11.7287 13.0616 11.7287C12.9072 11.7287 12.7591 11.6674 12.65 11.5582C12.5408 11.449 12.4795 11.301 12.4795 11.1466C12.4795 10.9922 12.5408 10.8441 12.65 10.7349C12.7591 10.6258 12.9072 10.5644 13.0616 10.5644Z" fill="#999CA0"/>
</svg>
