<svg width="16" height="16" viewBox="0 0 16 16" fill="none" xmlns="http://www.w3.org/2000/svg">
<g clip-path="url(#clip0_30949_32856)">
<path d="M8.01302 4.65479C7.61288 5.06075 7.23705 5.44296 6.8602 5.82516C6.84703 5.81793 6.83386 5.8107 6.82069 5.80347V5.4068H6.02749C6.02446 5.47601 6.01939 5.53696 6.01939 5.59791C6.01939 5.91813 6.02446 6.23733 6.01432 6.55755C6.01129 6.63503 5.97178 6.72593 5.92011 6.78378C5.71953 7.00484 5.50173 7.21041 5.30217 7.43147C5.24747 7.49241 5.20289 7.58951 5.20289 7.67009C5.1958 8.71237 5.20087 9.75363 5.1958 10.7959C5.1958 10.9364 5.24037 10.9674 5.37004 10.9664C5.96671 10.9591 6.56338 10.9633 7.16006 10.9633C7.20868 10.9633 7.25731 10.9581 7.31707 10.955C7.32113 10.8837 7.3272 10.8238 7.3272 10.7629C7.3272 10.3352 7.3272 9.90651 7.3272 9.47885C7.3272 9.24746 7.32721 9.21751 7.50246 9.20718H8.23082C8.32301 9.20718 8.41418 9.20614 8.50637 9.20098C8.6411 9.19375 8.68061 9.23713 8.67858 9.37246C8.67149 9.84143 8.67554 10.3114 8.67655 10.7804C8.67655 10.8393 8.68466 10.8982 8.68871 10.9519H10.808C10.808 10.8899 10.808 10.8393 10.808 10.7887C10.808 9.75156 10.8059 8.71547 10.81 7.67835C10.81 7.56989 10.7725 7.49758 10.7006 7.42527C10.0158 6.72903 9.33299 6.03073 8.65224 5.33139C8.43951 5.11343 8.23285 4.88927 8.01201 4.65685L8.01302 4.65479Z" fill="#999CA0"/>
<path d="M12.0408 4.75487C12.0438 5.58746 12.7053 6.25994 13.5218 6.25684C14.3322 6.25478 14.9998 5.57507 15.0008 4.75074C14.9937 3.92435 14.3393 3.24154 13.5107 3.24464C12.7124 3.24671 12.0387 3.90782 12.0418 4.75591L12.0408 4.75487ZM13.5117 3.94811C13.924 3.95017 14.315 4.29209 14.2897 4.75074C14.317 5.21662 13.9007 5.55028 13.5238 5.55131C13.0842 5.55337 12.7256 5.1753 12.7225 4.70632C12.7195 4.32515 13.1126 3.94707 13.5117 3.94811Z" fill="#999CA0"/>
<path d="M2.47384 6.257C3.29844 6.2601 3.96096 5.58453 3.95995 4.74574C3.95792 3.89249 3.27413 3.23034 2.48195 3.2479C1.66444 3.2386 1.01103 3.90282 0.999892 4.74574C0.988748 5.57006 1.66545 6.2539 2.47384 6.257ZM2.48195 3.94827C2.90944 3.94517 3.26299 4.31085 3.26299 4.75297C3.26299 5.19199 2.90539 5.5556 2.47587 5.5525C2.04939 5.5494 1.708 5.19509 1.708 4.75503C1.67558 4.33564 2.04533 3.9524 2.48195 3.9493V3.94827Z" fill="#999CA0"/>
<path d="M14.1256 9.40968C14.154 9.42001 14.1813 9.43344 14.2097 9.44584C14.314 9.49335 14.4174 9.5419 14.5318 9.59562C14.8246 8.24653 14.7446 7.37056 14.5298 6.41504C14.3171 6.49871 14.1043 6.58238 13.8916 6.66606C13.9027 6.76316 13.9068 6.85509 13.923 6.94496C14.0537 7.64533 14.0537 8.3457 13.923 9.04607C13.8734 9.31258 13.8724 9.31568 14.1246 9.40968H14.1256Z" fill="#999CA0"/>
<path d="M11.983 12.5983C11.5869 12.9546 11.1574 13.2635 10.6782 13.4939C10.3946 13.6302 10.1039 13.749 9.81616 13.8761C9.85263 14.1013 9.8891 14.3264 9.92658 14.5516C10.7704 14.3502 12.1228 13.5486 12.601 12.965C12.451 12.8389 12.3052 12.7243 12.1684 12.5993C12.0995 12.5363 12.062 12.527 11.983 12.5983Z" fill="#999CA0"/>
<path d="M10.1718 2.26322C10.8435 2.54626 11.4645 2.91297 12.0014 3.41603C12.0601 3.47078 12.0976 3.45839 12.1523 3.4088C12.2941 3.28071 12.442 3.15985 12.596 3.0297C12.2496 2.52146 10.647 1.57318 9.92568 1.44922C9.8882 1.67441 9.85173 1.8996 9.81323 2.13099C9.87604 2.15475 9.93074 2.17748 9.98747 2.1971C10.0493 2.21983 10.1121 2.23739 10.1718 2.26218V2.26322Z" fill="#999CA0"/>
<path d="M6.18665 13.8671C5.96581 13.7772 5.74902 13.6956 5.53932 13.6016C4.97102 13.3455 4.45944 12.9984 3.99142 12.5821C3.9661 12.5594 3.89012 12.5614 3.86074 12.5831C3.70676 12.7029 3.55987 12.8321 3.38867 12.9767C4.16566 13.7173 5.05206 14.2493 6.07217 14.5572C6.11269 14.3144 6.15018 14.0892 6.18665 13.8671Z" fill="#999CA0"/>
<path d="M4.98908 2.69416C5.36795 2.47 5.7762 2.29749 6.1804 2.09813C6.14798 1.90082 6.1105 1.67563 6.07099 1.43701C5.05087 1.75001 4.16043 2.27993 3.38647 3.02265C3.5749 3.17657 3.74509 3.31602 3.90616 3.44721C4.27085 3.19103 4.61527 2.91729 4.98908 2.69519V2.69416Z" fill="#999CA0"/>
<path d="M2.04034 6.63067C1.85597 6.55526 1.66755 6.49122 1.44772 6.41064C1.40112 6.74637 1.34743 7.06969 1.31096 7.39508C1.23195 8.10268 1.3059 8.80099 1.44164 9.49619C1.46292 9.60362 1.50546 9.58503 1.57739 9.553C1.71921 9.48999 1.86205 9.42698 2.00995 9.38049C2.09808 9.3526 2.11328 9.31542 2.10011 9.22555C2.05554 8.93631 2.00691 8.64707 1.98969 8.35577C1.95829 7.81551 1.98665 7.27629 2.10011 6.7443C2.1072 6.71124 2.07174 6.64307 2.04034 6.63067Z" fill="#999CA0"/>
<path d="M8.0021 12.9888C7.18662 12.9888 6.52612 13.6623 6.52612 14.4938C6.52612 15.3254 7.18662 15.9989 8.0021 15.9989C8.81759 15.9989 9.47808 15.3254 9.47808 14.4938C9.47808 13.6623 8.81759 12.9888 8.0021 12.9888ZM8.0021 15.2934C7.56954 15.2934 7.21802 14.936 7.21802 14.4938C7.21802 14.0517 7.56853 13.6943 8.0021 13.6943C8.43567 13.6943 8.78618 14.0517 8.78618 14.4938C8.78618 14.936 8.43567 15.2934 8.0021 15.2934Z" fill="#999CA0"/>
<path d="M13.5199 9.73389C12.7044 9.73389 12.0439 10.4074 12.0439 11.239C12.0439 12.0705 12.7044 12.744 13.5199 12.744C14.3354 12.744 14.9959 12.0705 14.9959 11.239C14.9959 10.4074 14.3354 9.73389 13.5199 9.73389ZM13.5199 12.0385C13.0874 12.0385 12.7358 11.6811 12.7358 11.239C12.7358 10.7968 13.0863 10.4394 13.5199 10.4394C13.9535 10.4394 14.304 10.7968 14.304 11.239C14.304 11.6811 13.9535 12.0385 13.5199 12.0385Z" fill="#999CA0"/>
<path d="M2.4811 9.73926C1.66562 9.73926 1.00513 10.4138 1.00513 11.2454C1.00513 12.0769 1.66562 12.7504 2.4811 12.7504C3.29659 12.7504 3.95708 12.0769 3.95708 11.2454C3.95708 10.4138 3.29659 9.74029 2.4811 9.74029V9.73926ZM2.4811 12.0439C2.04854 12.0439 1.69702 11.6864 1.69702 11.2443C1.69702 10.8022 2.04753 10.4448 2.4811 10.4448C2.91468 10.4448 3.26519 10.8022 3.26519 11.2443C3.26519 11.6864 2.91468 12.0439 2.4811 12.0439Z" fill="#999CA0"/>
<path d="M7.99795 0C7.18247 0 6.52197 0.67351 6.52197 1.50507C6.52197 2.33663 7.18247 3.01014 7.99795 3.01014C8.81343 3.01014 9.47393 2.33663 9.47393 1.50507C9.47393 0.67351 8.81343 0 7.99795 0ZM7.99795 2.3046C7.56539 2.3046 7.21387 1.94719 7.21387 1.50507C7.21387 1.06295 7.56438 0.705533 7.99795 0.705533C8.43152 0.705533 8.78203 1.06295 8.78203 1.50507C8.78203 1.94719 8.43152 2.3046 7.99795 2.3046Z" fill="#999CA0"/>
</g>
<defs>
<clipPath id="clip0_30949_32856">
<rect width="14" height="16" fill="white" transform="translate(1)"/>
</clipPath>
</defs>
</svg>
