<svg width="25" height="24" viewBox="0 0 25 24" fill="none" xmlns="http://www.w3.org/2000/svg">
<path d="M20.91 4.99992C19.85 3.93713 18.4448 3.28846 16.9484 3.17109C15.4519 3.05372 13.9628 3.47539 12.75 4.35992C11.4777 3.41356 9.89402 2.98443 8.31795 3.15896C6.74188 3.33348 5.29047 4.0987 4.256 5.30051C3.22154 6.50231 2.68085 8.05144 2.74283 9.63594C2.80481 11.2204 3.46485 12.7226 4.59003 13.8399L10.8 20.0599C11.32 20.5717 12.0204 20.8585 12.75 20.8585C13.4796 20.8585 14.18 20.5717 14.7 20.0599L20.91 13.8399C22.0776 12.6652 22.733 11.0762 22.733 9.41992C22.733 7.76365 22.0776 6.17465 20.91 4.99992ZM19.5 12.4599L13.29 18.6699C13.2194 18.7413 13.1353 18.7979 13.0426 18.8366C12.9499 18.8752 12.8505 18.8951 12.75 18.8951C12.6496 18.8951 12.5502 18.8752 12.4575 18.8366C12.3648 18.7979 12.2807 18.7413 12.21 18.6699L6.00003 12.4299C5.21579 11.6283 4.77664 10.5514 4.77664 9.42992C4.77664 8.30846 5.21579 7.23158 6.00003 6.42992C6.79919 5.64091 7.877 5.19849 9.00003 5.19849C10.1231 5.19849 11.2009 5.64091 12 6.42992C12.093 6.52365 12.2036 6.59804 12.3255 6.64881C12.4473 6.69958 12.578 6.72572 12.71 6.72572C12.842 6.72572 12.9727 6.69958 13.0946 6.64881C13.2165 6.59804 13.3271 6.52365 13.42 6.42992C14.2192 5.64091 15.297 5.19849 16.42 5.19849C17.5431 5.19849 18.6209 5.64091 19.42 6.42992C20.2151 7.22107 20.6686 8.29211 20.6836 9.41361C20.6985 10.5351 20.2737 11.6179 19.5 12.4299V12.4599Z" fill="#999CA0"/>
</svg>
