<svg width="16" height="16" viewBox="0 0 16 16" fill="none" xmlns="http://www.w3.org/2000/svg">
<path d="M14.2223 0H4.44453C3.46408 0 2.66675 0.7176 2.66675 1.6V4C2.66675 4.8824 3.46408 5.6 4.44453 5.6H14.2223C15.2027 5.6 16.0001 4.8824 16.0001 4V1.6C16.0001 0.7176 15.2027 0 14.2223 0Z" fill="#999CA0"/>
<path d="M9.77778 10.3999V8.7999C9.77778 7.9175 8.98044 7.1999 8 7.1999H1.77778V2.3999C0.797333 2.3999 0 3.1175 0 3.9999V7.1999C0 8.0823 0.797333 8.7999 1.77778 8.7999H8V10.3999C7.76425 10.3999 7.53816 10.4842 7.37146 10.6342C7.20476 10.7842 7.11111 10.9877 7.11111 11.1999V15.1999C7.11111 15.4121 7.20476 15.6156 7.37146 15.7656C7.53816 15.9156 7.76425 15.9999 8 15.9999H9.77778C10.0135 15.9999 10.2396 15.9156 10.4063 15.7656C10.573 15.6156 10.6667 15.4121 10.6667 15.1999V11.1999C10.6667 10.9877 10.573 10.7842 10.4063 10.6342C10.2396 10.4842 10.0135 10.3999 9.77778 10.3999Z" fill="#999CA0"/>
</svg>
