<svg width="16" height="12" viewBox="0 0 16 12" fill="none" xmlns="http://www.w3.org/2000/svg">
<path d="M0.804268 0.560059H14.5559C14.9982 0.560059 15.3601 0.962299 15.3601 1.36006C15.3601 1.75782 14.9982 2.15974 14.5559 2.15974H14.3617V3.75974H0.978987V2.15974H0.804268C0.361708 2.15974 0.000107765 1.75782 0.000107765 1.36006C0.000107765 0.962299 0.361708 0.560059 0.804268 0.560059ZM7.68011 2.96646C7.90219 2.96646 8.08203 2.78118 8.08203 2.55302C8.08203 2.32486 7.90219 2.13958 7.68011 2.13958C7.45771 2.13958 7.27819 2.32486 7.27819 2.55302C7.27819 2.78118 7.45771 2.96646 7.68011 2.96646ZM14.3617 6.95942H0.978987V4.40006H14.3617V6.95942ZM7.68011 5.23974C7.45771 5.23974 7.27819 5.4247 7.27819 5.65286C7.27819 5.88134 7.45771 6.0663 7.68011 6.0663C7.90219 6.0663 8.08203 5.88134 8.08203 5.65286C8.08235 5.4247 7.90219 5.23974 7.68011 5.23974ZM14.3617 9.16646V11.0269C14.3617 11.2541 14.3332 11.4404 14.1121 11.4404H12.5044C12.2833 11.4404 12.1831 11.2541 12.1831 11.0269V9.83974H3.15755V11.0269C3.15755 11.2541 3.07691 11.4404 2.85611 11.4404H1.24811C1.02763 11.4404 0.979307 11.2541 0.979307 11.0269V7.60006H14.3617V9.16646ZM7.68011 8.3399C7.45771 8.3399 7.27819 8.52518 7.27819 8.75302C7.27819 8.98182 7.45771 9.16614 7.68011 9.16614C7.90219 9.16614 8.08203 8.98182 8.08203 8.75302C8.08235 8.5255 7.90219 8.3399 7.68011 8.3399Z" fill="#999CA0"/>
</svg>
