<svg width="14" height="16" viewBox="0 0 14 16" fill="none" xmlns="http://www.w3.org/2000/svg">
<path d="M0 8.63165C0 12.6965 2.78727 16 7 16C11.2127 16 14 12.6965 14 8.63165C12.5939 8.64309 11.2263 9.07585 10.0862 9.87007C8.94617 10.6643 8.09008 11.7807 7.63636 13.0649V7.4036H10.8182C11.3245 7.4036 11.8101 7.20952 12.1681 6.86406C12.5261 6.51861 12.7273 6.05006 12.7273 5.56151V1.87734C12.7273 1.74847 12.6852 1.62286 12.6072 1.51831C12.5291 1.41376 12.4189 1.33557 12.2921 1.29482C12.1654 1.25407 12.0287 1.25281 11.9012 1.29124C11.7737 1.32967 11.662 1.40582 11.5818 1.50892L9.63455 3.96504L7.53455 0.280865C7.47686 0.194688 7.39771 0.123831 7.30433 0.0747685C7.21095 0.0257055 7.10632 0 7 0C6.89368 0 6.78905 0.0257055 6.69567 0.0747685C6.60229 0.123831 6.52314 0.194688 6.46545 0.280865L4.36545 3.96504L2.41818 1.50892C2.33804 1.40582 2.22632 1.32967 2.09883 1.29124C1.97135 1.25281 1.83456 1.25407 1.70786 1.29482C1.58115 1.33557 1.47094 1.41376 1.39285 1.51831C1.31475 1.62286 1.27273 1.74847 1.27273 1.87734V5.56151C1.27273 6.05006 1.47386 6.51861 1.83189 6.86406C2.18991 7.20952 2.6755 7.4036 3.18182 7.4036H6.36364V13.0649C5.90992 11.7807 5.05383 10.6643 3.91379 9.87007C2.77374 9.07585 1.40609 8.64309 0 8.63165Z" fill="#999CA0"/>
</svg>
