<svg width="16" height="16" viewBox="0 0 16 16" fill="none" xmlns="http://www.w3.org/2000/svg">
<g clip-path="url(#clip0_30949_32892)">
<path d="M9.66046 15.9974C10.2143 15.4641 10.6297 14.8543 10.8015 14.0624C10.9448 13.405 10.9543 12.7398 10.6679 12.1432C10.0902 10.9421 9.46471 9.77 8.82494 8.52137C8.32601 9.5113 7.8629 10.4273 7.37829 11.3882C7.1348 10.752 6.90801 10.1607 6.65258 9.49282C6.14172 10.6253 5.36349 11.5334 5.15342 12.7425C4.92902 14.0386 5.36827 15.0866 6.29928 15.8944C6.33986 15.9287 6.38044 15.9604 6.43057 16C6.08204 15.9551 5.46376 15.6146 4.98631 15.2107C3.07655 13.6004 2.43917 10.789 3.53728 8.42105C4.23912 6.90843 5.06748 5.46444 5.84571 3.99406C6.54755 2.67151 7.25655 1.35423 7.98226 0C8.04671 0.102953 8.09684 0.174229 8.13981 0.256063C9.32387 2.47088 10.5103 4.68306 11.6848 6.90315C12.0071 7.51295 12.327 8.12803 12.5943 8.76951C13.1935 10.2161 13.0909 11.6733 12.5251 13.0962C12.0095 14.3897 11.131 15.3057 9.96364 15.8759C9.86576 15.9234 9.76072 15.9578 9.66046 15.9974Z" fill="#999CA0"/>
</g>
<defs>
<clipPath id="clip0_30949_32892">
<rect width="10" height="16" fill="white" transform="translate(3)"/>
</clipPath>
</defs>
</svg>
