<svg width="25" height="24" viewBox="0 0 25 24" fill="none" xmlns="http://www.w3.org/2000/svg">
<path d="M20.7501 8.00001L14.7501 2.74001C14.2001 2.24805 13.488 1.97607 12.7501 1.97607C12.0122 1.97607 11.3001 2.24805 10.7501 2.74001L4.75009 8.00001C4.43246 8.28408 4.17899 8.63256 4.00657 9.02225C3.83414 9.41194 3.74671 9.83389 3.75009 10.26V19C3.75009 19.7957 4.06617 20.5587 4.62877 21.1213C5.19138 21.6839 5.95445 22 6.75009 22H18.7501C19.5457 22 20.3088 21.6839 20.8714 21.1213C21.434 20.5587 21.7501 19.7957 21.7501 19V10.25C21.7521 9.82557 21.6639 9.40555 21.4916 9.01769C21.3192 8.62983 21.0665 8.28296 20.7501 8.00001ZM14.7501 20H10.7501V15C10.7501 14.7348 10.8555 14.4804 11.043 14.2929C11.2305 14.1054 11.4849 14 11.7501 14H13.7501C14.0153 14 14.2697 14.1054 14.4572 14.2929C14.6447 14.4804 14.7501 14.7348 14.7501 15V20ZM19.7501 19C19.7501 19.2652 19.6447 19.5196 19.4572 19.7071C19.2697 19.8946 19.0153 20 18.7501 20H16.7501V15C16.7501 14.2044 16.434 13.4413 15.8714 12.8787C15.3088 12.3161 14.5457 12 13.7501 12H11.7501C10.9544 12 10.1914 12.3161 9.62877 12.8787C9.06616 13.4413 8.75009 14.2044 8.75009 15V20H6.75009C6.48488 20 6.23052 19.8946 6.04299 19.7071C5.85545 19.5196 5.75009 19.2652 5.75009 19V10.25C5.75027 10.108 5.78069 9.9677 5.83931 9.83839C5.89794 9.70907 5.98343 9.59372 6.0901 9.50001L12.0901 4.25001C12.2726 4.08969 12.5072 4.00127 12.7501 4.00127C12.993 4.00127 13.2276 4.08969 13.4101 4.25001L19.4101 9.50001C19.5168 9.59372 19.6023 9.70907 19.6609 9.83839C19.7195 9.9677 19.7499 10.108 19.7501 10.25V19Z" fill="#999CA0"/>
</svg>
