<svg width="16" height="16" viewBox="0 0 16 16" fill="none" xmlns="http://www.w3.org/2000/svg">
<path d="M14.4744 8.15691C14.274 8.15725 14.0755 8.12186 13.8903 8.05278C13.7052 7.9837 13.5371 7.88231 13.3956 7.75444C10.4209 5.07657 5.58084 5.07726 2.60537 7.75444C2.31915 8.0121 1.93096 8.15685 1.52619 8.15685C1.12142 8.15685 0.733227 8.0121 0.447011 7.75444C0.160795 7.49679 0 7.14733 0 6.78295C0 6.41857 0.160795 6.06911 0.447011 5.81146C4.61191 2.06285 11.3883 2.06285 15.5525 5.81146C15.766 6.00348 15.9115 6.24821 15.9705 6.51468C16.0296 6.78115 15.9995 7.05739 15.8841 7.30847C15.7687 7.55954 15.5731 7.77416 15.3222 7.92519C15.0713 8.07621 14.7763 8.15685 14.4744 8.15691ZM4.76373 11.0704C4.46199 11.0703 4.16704 10.9897 3.91617 10.8388C3.6653 10.6878 3.46977 10.4733 3.35431 10.2224C3.23884 9.9714 3.20863 9.69526 3.26748 9.42884C3.32633 9.16242 3.4716 8.91769 3.68493 8.72559C6.06378 6.58343 9.93647 6.58343 12.3161 8.72559C12.6023 8.98325 12.7631 9.3327 12.7631 9.69708C12.7631 10.0615 12.6023 10.4109 12.3161 10.6686C12.0299 10.9262 11.6417 11.071 11.2369 11.071C10.8321 11.071 10.4439 10.9262 10.1577 10.6686C9.58491 10.1542 8.80884 9.8653 7.99974 9.8653C7.19065 9.8653 6.41458 10.1542 5.84177 10.6686C5.70039 10.7962 5.53235 10.8975 5.34733 10.9664C5.16232 11.0354 4.96398 11.0707 4.76373 11.0704Z" fill="#999CA0"/>
<path d="M9.4112 13.1358C9.33433 13.3024 9.22169 13.4536 9.07973 13.5809C8.93897 13.7121 8.7706 13.8167 8.58444 13.8887C8.39827 13.9607 8.19805 13.9986 7.99544 14.0002C7.79283 14.0017 7.59191 13.967 7.40438 13.8979C7.21686 13.8289 7.04649 13.7269 6.90322 13.5979C6.75995 13.4689 6.64665 13.3155 6.56993 13.1467C6.4932 12.9779 6.4546 12.797 6.45636 12.6147C6.45812 12.4323 6.50021 12.252 6.58018 12.0844C6.66015 11.9168 6.7764 11.7653 6.92213 11.6386C7.06361 11.5106 7.23178 11.4092 7.41698 11.34C7.60217 11.2708 7.80074 11.2352 8.00125 11.2354C8.20176 11.2355 8.40027 11.2713 8.58535 11.3407C8.77044 11.4102 8.93845 11.5118 9.07973 11.6399C9.22169 11.7672 9.33433 11.9184 9.4112 12.0849C9.48806 12.2515 9.52763 12.4301 9.52763 12.6104C9.52763 12.7907 9.48806 12.9693 9.4112 13.1358Z" fill="#999CA0"/>
</svg>
