<svg width="16" height="16" viewBox="0 0 16 16" fill="none" xmlns="http://www.w3.org/2000/svg">
<path d="M13.2377 6.79215C13.2377 7.09908 13.2377 7.37931 13.2377 7.68623C14.1585 7.68623 15.0792 7.68623 16 7.68623C16 7.89974 16 8.09991 16 8.30008C15.9066 8.30008 15.8265 8.31342 15.7198 8.31342C15.7198 10.8756 15.7198 13.4377 15.7198 15.9998C10.5688 15.9998 5.44454 15.9998 0.293578 15.9998C0.293578 13.4377 0.293578 10.8756 0.293578 8.31342C0.186822 8.31342 0.0934112 8.31342 0 8.31342C0 8.09991 0 7.91309 0 7.69958C3.37615 7.69958 6.75229 7.69958 10.1551 7.69958C10.1551 7.39265 10.1551 7.08573 10.1551 6.77881C10.5822 6.77881 10.9825 6.77881 11.3828 6.77881C11.3828 6.97898 11.3828 7.1658 11.3828 7.37931C11.1827 7.37931 10.9958 7.37931 10.7823 7.37931C10.7823 7.48607 10.7823 7.57948 10.7823 7.68623C11.3962 7.68623 11.9967 7.68623 12.6105 7.68623C12.6105 7.59282 12.6105 7.49941 12.6105 7.39265C12.4237 7.39265 12.2235 7.39265 12.0234 7.39265C12.0234 7.17914 12.0234 6.99232 12.0234 6.79215C12.4237 6.79215 12.824 6.79215 13.2377 6.79215ZM7.99333 9.24753C5.83153 9.24753 3.68307 9.24753 1.53461 9.24753C1.53461 11.1024 1.53461 12.9439 1.53461 14.7721C3.69641 14.7721 5.83153 14.7721 7.99333 14.7721C7.99333 12.9306 7.99333 11.1024 7.99333 9.24753ZM14.4654 14.4786C14.4654 13.1441 14.4654 11.8097 14.4654 10.4886C12.6105 10.4886 10.769 10.4886 8.94078 10.4886C8.94078 11.823 8.94078 13.1441 8.94078 14.4786C10.7823 14.4786 12.6105 14.4786 14.4654 14.4786ZM12.3169 9.39432C12.3169 9.15412 12.1034 8.94061 11.8632 8.94061C11.6097 8.94061 11.3962 9.15412 11.3962 9.40767C11.3962 9.64787 11.6097 9.86138 11.8499 9.86138C12.0901 9.86138 12.3169 9.64787 12.3169 9.39432ZM13.3978 9.86138C13.638 9.86138 13.8515 9.66121 13.8649 9.42101C13.8782 9.18081 13.6514 8.95395 13.4112 8.94061C13.1576 8.94061 12.9441 9.15412 12.9441 9.40767C12.9441 9.63452 13.1576 9.84803 13.3978 9.86138Z" fill="#999CA0"/>
<path d="M5.21748 2.78887C5.21748 2.37519 5.21748 1.97486 5.21748 1.54784C4.29672 1.54784 3.3893 1.54784 2.45518 1.54784C2.45518 1.60121 2.44184 1.66794 2.44184 1.72131C2.44184 2.53533 2.44184 3.34934 2.44184 4.16335C2.44184 4.28345 2.46853 4.35017 2.57528 4.41689C2.94893 4.61706 3.13575 5.04408 3.02899 5.44442C2.93558 5.88478 2.57528 6.15167 2.14826 6.15167C1.72124 6.15167 1.36094 5.87144 1.25418 5.45776C1.14743 5.05743 1.33425 4.64375 1.69455 4.41689C1.76127 4.37686 1.82799 4.31014 1.82799 4.24342C1.84134 3.38937 1.82799 2.53533 1.82799 1.68128C1.82799 1.64125 1.82799 1.58787 1.82799 1.52115C1.52107 1.52115 1.22749 1.52115 0.907227 1.52115C0.907227 1.30764 0.907227 1.12081 0.907227 0.907302C1.2008 0.907302 1.49438 0.907302 1.81465 0.907302C1.81465 0.693791 1.81465 0.493624 1.81465 0.293457C2.02816 0.293457 2.21498 0.293457 2.42849 0.293457C2.42849 0.493624 2.42849 0.680446 2.42849 0.893957C3.36261 0.893957 4.27003 0.893957 5.20414 0.893957C5.20414 0.707135 5.20414 0.506968 5.20414 0.306801C5.41765 0.306801 5.61782 0.306801 5.81799 0.306801C5.81799 0.493624 5.81799 0.693791 5.81799 0.907302C6.33842 0.907302 6.83216 0.907302 7.3526 0.907302C7.3526 1.12081 7.3526 1.32098 7.3526 1.52115C6.84551 1.52115 6.35176 1.52115 5.83133 1.52115C5.83133 1.94817 5.83133 2.36185 5.83133 2.77553C7.03233 3.05576 7.45935 4.06994 7.33925 4.8706C7.21915 5.85809 6.43183 6.49863 5.41765 6.4586C4.56361 6.43191 3.78963 5.71131 3.69622 4.83057C3.58946 3.85643 4.20331 3.02907 5.21748 2.78887Z" fill="#999CA0"/>
<path d="M10.1685 0C11.2094 0 12.2236 0 13.2511 0C13.2511 0.400334 13.2511 0.787323 13.2511 1.17431C13.2511 1.29441 13.2911 1.36113 13.3979 1.41451C13.7181 1.5613 14.0384 1.73478 14.3587 1.89491C14.4121 1.9216 14.4788 1.98832 14.4788 2.0417C14.4921 2.37531 14.4788 2.72227 14.4788 3.06922C12.6239 3.06922 10.7957 3.06922 8.92749 3.06922C8.92749 2.72227 8.92749 2.37531 8.92749 2.02836C8.92749 1.98832 8.99421 1.9216 9.04759 1.89491C9.3812 1.73478 9.70147 1.5613 10.0351 1.40117C10.1418 1.34779 10.1685 1.29441 10.1685 1.17431C10.1552 0.800667 10.1685 0.400334 10.1685 0Z" fill="#999CA0"/>
<path d="M2.16187 9.86182C3.90999 9.86182 5.63142 9.86182 7.37955 9.86182C7.37955 10.4757 7.37955 11.0762 7.37955 11.69C5.64477 11.69 3.90999 11.69 2.16187 11.69C2.16187 11.0895 2.16187 10.489 2.16187 9.86182ZM5.21775 10.489C4.80407 10.489 4.40373 10.489 4.0034 10.489C4.0034 10.7025 4.0034 10.8893 4.0034 11.0895C4.41708 11.0895 4.80407 11.0895 5.21775 11.0895C5.21775 10.8893 5.21775 10.6892 5.21775 10.489Z" fill="#999CA0"/>
<path d="M2.14844 14.1583C2.14844 13.5444 2.14844 12.9439 2.14844 12.3301C3.89656 12.3301 5.63134 12.3301 7.36612 12.3301C7.36612 12.9439 7.36612 13.5444 7.36612 14.1583C5.64468 14.1583 3.90991 14.1583 2.14844 14.1583ZM5.21766 13.5444C5.21766 13.3309 5.21766 13.1441 5.21766 12.9439C4.80398 12.9439 4.40365 12.9439 4.00332 12.9439C4.00332 13.1441 4.00332 13.3443 4.00332 13.5444C4.40365 13.5444 4.80398 13.5444 5.21766 13.5444Z" fill="#999CA0"/>
<path d="M9.55469 13.8515C9.55469 12.9307 9.55469 12.0233 9.55469 11.1025C10.9825 11.1025 12.4104 11.1025 13.8516 11.1025C13.8516 12.01 13.8516 12.9307 13.8516 13.8515C12.4237 13.8515 10.9959 13.8515 9.55469 13.8515ZM11.0893 11.9966C11.503 11.9966 11.9033 11.9966 12.3036 11.9966C12.3036 11.7831 12.3036 11.5963 12.3036 11.3961C11.89 11.3961 11.503 11.3961 11.0893 11.3961C11.0893 11.6096 11.0893 11.7965 11.0893 11.9966Z" fill="#999CA0"/>
</svg>
