<svg width="25" height="24" viewBox="0 0 25 24" fill="none" xmlns="http://www.w3.org/2000/svg">
<path d="M22.2099 9.28994L18.2099 5.28994C18.1167 5.1967 18.006 5.12274 17.8841 5.07228C17.7623 5.02182 17.6318 4.99585 17.4999 4.99585C17.2336 4.99585 16.9782 5.10164 16.7899 5.28994C16.6016 5.47825 16.4958 5.73364 16.4958 5.99994C16.4958 6.26624 16.6016 6.52164 16.7899 6.70994L19.0899 8.99994H7.4999C7.23468 8.99994 6.98033 9.1053 6.79279 9.29283C6.60525 9.48037 6.4999 9.73472 6.4999 9.99994C6.4999 10.2652 6.60525 10.5195 6.79279 10.707C6.98033 10.8946 7.23468 10.9999 7.4999 10.9999H21.4999C21.6973 10.999 21.89 10.9396 22.0538 10.8292C22.2175 10.7189 22.3449 10.5626 22.4199 10.3799C22.4965 10.1978 22.5174 9.99712 22.48 9.80313C22.4426 9.60914 22.3487 9.43057 22.2099 9.28994ZM17.4999 12.9999H3.4999C3.30247 13.0009 3.10975 13.0603 2.94603 13.1707C2.78231 13.281 2.65492 13.4373 2.5799 13.6199C2.50332 13.8021 2.48239 14.0028 2.51977 14.1968C2.55714 14.3907 2.65114 14.5693 2.7899 14.7099L6.7899 18.7099C6.88286 18.8037 6.99346 18.8781 7.11532 18.9288C7.23718 18.9796 7.36788 19.0057 7.4999 19.0057C7.63191 19.0057 7.76261 18.9796 7.88447 18.9288C8.00633 18.8781 8.11693 18.8037 8.2099 18.7099C8.30362 18.617 8.37802 18.5064 8.42879 18.3845C8.47956 18.2627 8.50569 18.132 8.50569 17.9999C8.50569 17.8679 8.47956 17.7372 8.42879 17.6154C8.37802 17.4935 8.30362 17.3829 8.2099 17.2899L5.9099 14.9999H17.4999C17.7651 14.9999 18.0195 14.8946 18.207 14.707C18.3945 14.5195 18.4999 14.2652 18.4999 13.9999C18.4999 13.7347 18.3945 13.4804 18.207 13.2928C18.0195 13.1053 17.7651 12.9999 17.4999 12.9999Z" fill="#999CA0"/>
</svg>
