<svg width="25" height="24" viewBox="0 0 25 24" fill="none" xmlns="http://www.w3.org/2000/svg">
<path d="M3.96023 16.29C3.86513 16.199 3.75298 16.1276 3.63023 16.08C3.38677 15.98 3.11369 15.98 2.87023 16.08C2.74748 16.1276 2.63534 16.199 2.54023 16.29C2.44919 16.3851 2.37783 16.4972 2.33023 16.62C2.25365 16.8021 2.23273 17.0028 2.2701 17.1968C2.30748 17.3908 2.40147 17.5694 2.54023 17.71C2.63743 17.7983 2.74905 17.8694 2.87023 17.92C2.98993 17.9729 3.11936 18.0002 3.25023 18.0002C3.3811 18.0002 3.51053 17.9729 3.63023 17.92C3.75142 17.8694 3.86303 17.7983 3.96023 17.71C4.09899 17.5694 4.19299 17.3908 4.23036 17.1968C4.26773 17.0028 4.24681 16.8021 4.17023 16.62C4.12264 16.4972 4.05127 16.3851 3.96023 16.29ZM7.25023 8H21.2502C21.5154 8 21.7698 7.89464 21.9573 7.70711C22.1449 7.51957 22.2502 7.26522 22.2502 7C22.2502 6.73478 22.1449 6.48043 21.9573 6.29289C21.7698 6.10536 21.5154 6 21.2502 6H7.25023C6.98502 6 6.73066 6.10536 6.54313 6.29289C6.35559 6.48043 6.25023 6.73478 6.25023 7C6.25023 7.26522 6.35559 7.51957 6.54313 7.70711C6.73066 7.89464 6.98502 8 7.25023 8ZM3.96023 11.29C3.81961 11.1512 3.64104 11.0572 3.44705 11.0199C3.25306 10.9825 3.05234 11.0034 2.87023 11.08C2.74905 11.1306 2.63743 11.2017 2.54023 11.29C2.44919 11.3851 2.37783 11.4972 2.33023 11.62C2.27733 11.7397 2.25 11.8691 2.25 12C2.25 12.1309 2.27733 12.2603 2.33023 12.38C2.38087 12.5012 2.4519 12.6128 2.54023 12.71C2.63743 12.7983 2.74905 12.8694 2.87023 12.92C2.98993 12.9729 3.11936 13.0002 3.25023 13.0002C3.3811 13.0002 3.51053 12.9729 3.63023 12.92C3.75142 12.8694 3.86303 12.7983 3.96023 12.71C4.04856 12.6128 4.11959 12.5012 4.17023 12.38C4.22314 12.2603 4.25047 12.1309 4.25047 12C4.25047 11.8691 4.22314 11.7397 4.17023 11.62C4.12264 11.4972 4.05127 11.3851 3.96023 11.29ZM21.2502 11H7.25023C6.98502 11 6.73066 11.1054 6.54313 11.2929C6.35559 11.4804 6.25023 11.7348 6.25023 12C6.25023 12.2652 6.35559 12.5196 6.54313 12.7071C6.73066 12.8946 6.98502 13 7.25023 13H21.2502C21.5154 13 21.7698 12.8946 21.9573 12.7071C22.1449 12.5196 22.2502 12.2652 22.2502 12C22.2502 11.7348 22.1449 11.4804 21.9573 11.2929C21.7698 11.1054 21.5154 11 21.2502 11ZM3.96023 6.29C3.86513 6.19896 3.75298 6.12759 3.63023 6.08C3.44812 6.00342 3.24741 5.9825 3.05342 6.01987C2.85943 6.05725 2.68086 6.15124 2.54023 6.29C2.4519 6.3872 2.38087 6.49882 2.33023 6.62C2.27733 6.7397 2.25 6.86913 2.25 7C2.25 7.13087 2.27733 7.2603 2.33023 7.38C2.38087 7.50119 2.4519 7.6128 2.54023 7.71C2.63743 7.79833 2.74905 7.86936 2.87023 7.92C3.05234 7.99658 3.25306 8.0175 3.44705 7.98013C3.64104 7.94275 3.81961 7.84876 3.96023 7.71C4.04856 7.6128 4.11959 7.50119 4.17023 7.38C4.22314 7.2603 4.25047 7.13087 4.25047 7C4.25047 6.86913 4.22314 6.7397 4.17023 6.62C4.11959 6.49882 4.04856 6.3872 3.96023 6.29ZM21.2502 16H7.25023C6.98502 16 6.73066 16.1054 6.54313 16.2929C6.35559 16.4804 6.25023 16.7348 6.25023 17C6.25023 17.2652 6.35559 17.5196 6.54313 17.7071C6.73066 17.8946 6.98502 18 7.25023 18H21.2502C21.5154 18 21.7698 17.8946 21.9573 17.7071C22.1449 17.5196 22.2502 17.2652 22.2502 17C22.2502 16.7348 22.1449 16.4804 21.9573 16.2929C21.7698 16.1054 21.5154 16 21.2502 16Z" fill="#999CA0"/>
</svg>
