<svg width="16" height="16" viewBox="0 0 16 16" fill="none" xmlns="http://www.w3.org/2000/svg">
<path d="M6.57188 2.94255C6.5568 2.33196 6.37755 1.77929 5.95875 1.31762C5.61868 0.941999 5.20825 0.67228 4.69228 0.606092C4.31201 0.558105 3.92671 0.518392 3.54308 0.513428C2.38551 0.498535 1.22961 0.501845 0.0720343 0.498535C0.0519317 0.498535 0.0335043 0.505154 0 0.511773V0.665661C0 1.82562 0 2.98392 0 4.14387C0 4.17862 0.0117265 4.2233 0 4.24812V4.88353C0.00167522 4.89843 0.00335043 4.91497 0.00335043 4.93152C0 5.5752 0 6.22054 0 6.86423V6.9056C0 7.54432 0 8.18304 0 8.82341C0 8.87305 0 8.92104 0 8.98392H0.152445C0.623181 8.98392 1.09224 8.98392 1.56298 8.98392C1.67913 8.98392 1.7372 8.92821 1.7372 8.81679C1.7372 7.86699 1.7372 6.91718 1.7372 5.96737C1.7372 5.91442 1.7372 5.86312 1.7372 5.80025C1.80756 5.80025 1.85949 5.80025 1.90975 5.80025C2.65019 5.78039 3.39064 5.75888 4.13109 5.73902C4.6504 5.72413 5.12784 5.57355 5.54999 5.27735C5.9621 4.98778 6.24856 4.60058 6.42111 4.13064C6.5635 3.74509 6.58193 3.34796 6.5702 2.94421L6.57188 2.94255ZM3.86473 4.25143C3.54308 4.30935 3.20972 4.32093 2.88137 4.33251C2.50613 4.34575 2.1292 4.33582 1.74223 4.33582V1.95799C1.79081 1.95469 1.83436 1.94972 1.87959 1.94972C2.43242 1.95469 2.98691 1.95303 3.53973 1.97289C3.72568 1.97951 3.92001 2.02087 4.09256 2.09037C4.56497 2.28066 4.78275 2.64967 4.7794 3.14608C4.77604 3.7153 4.43262 4.14718 3.8664 4.24978L3.86473 4.25143Z" fill="#999CA0"/>
<path d="M15.9983 14.8979C15.9999 13.7644 15.9983 12.6309 15.9999 11.4974C15.9999 11.0192 15.7269 10.7379 15.3332 10.5228C15.0149 10.3491 14.7033 10.1654 14.3867 9.98337C14.3448 9.94531 14.3063 9.89567 14.3029 9.86092C14.3499 9.73681 14.4152 9.65573 14.5224 9.63422C14.5291 9.63422 14.5358 9.63422 14.5442 9.63422C14.6648 9.6458 14.7871 9.64415 14.9094 9.63422C14.9127 9.63422 14.9161 9.63422 14.9211 9.63422C15.2863 9.65408 15.3751 9.43566 15.36 9.08817C15.35 8.85651 15.2411 8.67449 15.0116 8.59341C15.0032 8.5901 14.9931 8.58679 14.9848 8.58348C14.777 8.47096 14.5559 8.40477 14.313 8.3998C14.2276 8.39153 14.1622 8.3998 14.1103 8.42462C14.0249 8.45772 13.9662 8.52722 13.9461 8.64139C13.926 8.7506 13.9026 8.85981 13.8758 8.98723C13.8506 8.96075 13.8322 8.94421 13.8222 8.92104C13.5022 8.21779 13.1822 7.51288 12.869 6.80631C12.7785 6.60278 12.6445 6.49854 12.4099 6.49854C11.2272 6.50019 10.0429 6.50019 8.86016 6.50019C7.67746 6.50019 6.49308 6.50019 5.31038 6.49854C5.07585 6.49854 4.94183 6.60278 4.85137 6.80631C4.5381 7.51288 4.21646 8.21613 3.89817 8.92104C3.88812 8.94255 3.86969 8.96075 3.84456 8.98723C3.81776 8.85981 3.79431 8.7506 3.7742 8.64139C3.7541 8.52887 3.69547 8.45937 3.61003 8.42462C3.5581 8.3998 3.49277 8.39153 3.40733 8.3998C3.16443 8.40477 2.9433 8.47096 2.73557 8.58348C2.72719 8.58679 2.71714 8.5901 2.70877 8.59341C2.47926 8.67283 2.37037 8.85485 2.36032 9.08817C2.34357 9.43566 2.43403 9.65242 2.79923 9.63422C2.80258 9.63422 2.80593 9.63422 2.81096 9.63422C2.93325 9.64415 3.05554 9.64746 3.17615 9.63422C3.18285 9.63422 3.19123 9.63422 3.19793 9.63422C3.30514 9.65573 3.37215 9.73681 3.41738 9.86092C3.41403 9.89567 3.3755 9.94696 3.33362 9.98337C3.01701 10.1654 2.70542 10.3507 2.38713 10.5228C1.99345 10.7363 1.71871 11.0176 1.72039 11.4974C1.72374 12.6309 1.72039 13.7644 1.72206 14.8979C1.71871 14.9359 1.71871 14.9773 1.72709 15.017C1.75892 15.3082 1.95827 15.4787 2.27321 15.482C2.52282 15.4836 2.7741 15.4737 3.02371 15.482C3.10244 15.5151 3.19458 15.4985 3.28002 15.4803C3.29342 15.4787 3.30682 15.4754 3.32022 15.4704C3.33027 15.4688 3.33865 15.4654 3.3487 15.4638C3.5447 15.4208 3.7005 15.2884 3.72897 15.0733C3.73065 15.0567 3.73232 15.0418 3.734 15.0253C3.7407 14.9889 3.74238 14.9508 3.7407 14.9128C3.74238 14.8234 3.7407 14.7324 3.73735 14.643C3.73567 14.552 3.76415 14.5057 3.84121 14.4991C3.87304 14.4991 3.9032 14.4991 3.93168 14.4991C4.06569 14.5024 4.19971 14.4991 4.3354 14.4991C5.84477 14.4991 7.35414 14.4991 8.86351 14.4991C10.3729 14.4991 11.8823 14.4991 13.3916 14.4991C13.5256 14.4991 13.6597 14.5024 13.7954 14.4991C13.8238 14.4991 13.854 14.4991 13.8858 14.4991C13.9646 14.5074 13.993 14.552 13.9897 14.643C13.988 14.7324 13.9847 14.8234 13.9863 14.9128C13.9847 14.9508 13.9863 14.9872 13.993 15.0253C13.993 15.0418 13.9964 15.0567 13.9981 15.0733C14.0265 15.2884 14.1823 15.4208 14.3783 15.4638C14.3884 15.4654 14.3968 15.4688 14.4068 15.4704C14.4202 15.4737 14.4336 15.477 14.447 15.4803C14.5324 15.5002 14.6229 15.5151 14.7033 15.482C14.9529 15.4754 15.2042 15.4853 15.4538 15.482C15.7671 15.4787 15.9681 15.3066 15.9999 15.017C16.0083 14.979 16.0083 14.9359 16.005 14.8979H15.9983ZM14.958 12.4555C14.911 12.4737 14.8591 12.4903 14.8005 12.5068C14.2309 12.6706 13.658 12.8212 13.0851 12.9734C13.0851 12.9734 13.0834 12.9734 13.0817 12.9734C13.0566 12.9784 13.0298 12.9834 13.0047 12.9883C12.9427 12.9966 12.879 12.9983 12.817 13.0049C12.817 13.0032 12.817 12.9999 12.817 12.9983C12.8137 12.9983 12.8087 12.9983 12.8053 12.9983C12.8053 12.9966 12.8053 12.995 12.8053 12.9933C12.7601 12.9933 12.7148 12.9966 12.6713 12.9966C12.477 12.9817 12.4234 12.899 12.4686 12.6888C12.5105 12.4969 12.5641 12.3066 12.621 12.1163C12.6579 11.9938 12.7333 11.9144 12.8807 11.8979C13.0616 11.8764 13.2392 11.8267 13.4184 11.7887C13.7099 11.7258 14.0014 11.6629 14.2929 11.6017C14.4805 11.562 14.6681 11.5223 14.8574 11.4825C14.9043 11.4743 14.9496 11.4693 14.9965 11.4693C15.1389 11.4825 15.2662 11.5868 15.2963 11.7324C15.2997 11.7489 15.2997 11.7655 15.3014 11.782C15.3315 12.0981 15.2963 12.2652 15.1171 12.3794C15.0652 12.4059 15.0132 12.4323 14.9613 12.4555H14.958ZM12.1 9.36616H11.3077C11.2959 9.36119 11.2842 9.35623 11.2742 9.35292C11.2708 9.35788 11.2691 9.36285 11.2658 9.36616H10.8419C10.7934 9.36285 10.7414 9.36285 10.6895 9.36285C10.078 9.3645 9.46827 9.36616 8.85681 9.36616C8.24536 9.36616 7.63558 9.3645 7.02413 9.36285C6.97219 9.36285 6.92026 9.36285 6.87168 9.36616H6.44785C6.44785 9.36616 6.44283 9.35623 6.43948 9.35292C6.42775 9.35788 6.41602 9.36285 6.40597 9.36616H5.61359C5.38241 9.36616 5.15123 9.36616 4.92005 9.36616C4.83964 9.36616 4.75923 9.36616 4.67882 9.36616C4.61684 9.36616 4.55318 9.36119 4.47947 9.35788C4.47445 9.31817 4.46942 9.30659 4.47277 9.29997C4.74081 8.69434 5.01554 8.09037 5.27352 7.48144C5.36399 7.26632 5.49633 7.16704 5.7007 7.14057C5.73086 7.13891 5.76269 7.13726 5.79787 7.13726C6.8164 7.13726 7.83661 7.13726 8.85514 7.13726C9.87367 7.13726 10.8939 7.13726 11.9124 7.13726C11.9476 7.13726 11.9794 7.13726 12.0096 7.14057C12.2139 7.16704 12.3463 7.26798 12.4368 7.48144C12.6947 8.09203 12.9695 8.69434 13.2375 9.29997C13.2409 9.30824 13.2375 9.31983 13.2308 9.35788C13.1554 9.36285 13.0934 9.36616 13.0315 9.36616C12.951 9.36616 12.8706 9.36616 12.7902 9.36616C12.559 9.36616 12.3279 9.3645 12.0967 9.36616H12.1ZM4.91503 12.9933C4.91503 12.9933 4.91503 12.9966 4.91503 12.9983C4.91168 12.9983 4.90665 12.9983 4.9033 12.9983C4.9033 12.9999 4.9033 13.0032 4.9033 13.0049C4.84132 12.9983 4.77766 12.9966 4.71568 12.9883C4.69055 12.9834 4.66375 12.9784 4.63862 12.9734C4.63862 12.9734 4.63694 12.9734 4.63527 12.9734C4.06234 12.8212 3.48942 12.6706 2.91984 12.5068C2.86121 12.4903 2.80928 12.4737 2.76237 12.4555C2.70877 12.4323 2.65684 12.4059 2.60658 12.3794C2.42733 12.2636 2.39215 12.0981 2.4223 11.782C2.4223 11.7655 2.4223 11.7489 2.42733 11.7324C2.45748 11.5868 2.5848 11.4842 2.72719 11.4693C2.77243 11.4693 2.81933 11.4743 2.86624 11.4825C3.05386 11.5223 3.24149 11.562 3.43079 11.6017C3.72227 11.6646 4.01376 11.7274 4.30525 11.7887C4.4845 11.8267 4.66207 11.8764 4.84299 11.8979C4.98874 11.9161 5.0658 11.9938 5.10265 12.1163C5.15961 12.3049 5.21322 12.4952 5.2551 12.6888C5.302 12.899 5.24672 12.9801 5.0524 12.9966C5.00716 12.9966 4.96193 12.9933 4.91838 12.9933H4.91503Z" fill="#999CA0"/>
</svg>
