<svg width="16" height="16" viewBox="0 0 16 16" fill="none" xmlns="http://www.w3.org/2000/svg">
<g clip-path="url(#clip0_35073_7341)">
<path d="M3.78917 4.67175C5.34635 4.67175 6.90352 4.67175 8.4607 4.67175C8.4607 4.50306 8.4607 4.33437 8.4607 4.17865C8.4607 3.14053 7.70807 2.18027 6.68292 1.94669C6.59209 1.92074 6.55316 1.88181 6.52721 1.778C6.30661 0.869645 5.54099 0.155939 4.60669 0.0391506C4.17846 -0.0127554 3.75024 0.000221128 3.32201 0.000221128C2.01139 0.000221128 0.973272 1.03834 0.973272 2.34896C0.973272 3.75042 0.973272 5.15188 0.973272 6.55334C0.973272 6.60525 0.973272 6.65716 0.973272 6.70906C1.29768 6.70906 1.59614 6.70906 1.90758 6.70906C1.90758 6.64418 1.90758 6.5793 1.90758 6.51441C1.90758 5.13891 1.90758 3.7634 1.90758 2.38789C1.90758 1.6093 2.41366 1.02536 3.19225 0.947504C3.62047 0.908575 4.06167 0.921551 4.4899 0.960481C5.04789 1.03834 5.39825 1.40168 5.5929 1.92074C4.37311 2.24515 3.6594 3.30922 3.78917 4.67175ZM8.4607 7.66932C8.42177 7.66932 8.4088 7.66932 8.38284 7.66932C5.89136 7.66932 3.39987 7.66932 0.90839 7.66932C0.817554 7.66932 0.726719 7.69527 0.635884 7.72123C0.20766 7.86397 -0.0648463 8.30517 0.0130125 8.75935C0.0908714 9.21352 0.480166 9.55091 0.947319 9.55091C3.41285 9.55091 5.87838 9.55091 8.34391 9.55091C8.38284 9.55091 8.42177 9.55091 8.47368 9.53793C8.4607 8.90209 8.4607 8.29219 8.4607 7.66932ZM9.40798 10.9264C10.3553 10.9264 11.2766 10.9264 12.2109 10.9264C12.2109 10.9005 12.2239 10.8875 12.2239 10.8745C12.2239 9.78449 12.2239 8.69446 12.2239 7.61741C12.2239 7.15026 11.8086 6.73501 11.3285 6.73501C11.0041 6.73501 10.6797 6.73501 10.3553 6.73501C9.81026 6.73501 9.40798 7.13728 9.40798 7.6823C9.40798 8.26624 9.40798 8.8372 9.40798 9.42115C9.40798 9.90128 9.40798 10.4074 9.40798 10.9264Z" fill="#999CA0"/>
<path d="M2.68628 15.9999C2.47866 15.7793 2.25806 15.5587 2.03746 15.3251C2.23211 15.1305 2.42675 14.9488 2.63438 14.7412C2.59545 14.7023 2.55652 14.6763 2.50461 14.6504C1.50542 13.9886 0.986365 13.0672 0.973389 11.8604C0.973389 11.4062 0.973389 10.9391 0.973389 10.4719C3.46487 10.4719 5.95636 10.4719 8.47379 10.4719C8.47379 10.9261 8.47379 11.3933 8.47379 11.8604C10.0439 11.8604 11.6011 11.8604 13.1583 11.8604C13.1583 11.3933 13.1583 10.9391 13.1583 10.4719C13.7812 10.4719 14.404 10.4719 15.0399 10.4719C15.0399 10.6795 15.0399 10.9001 15.0399 11.1078C15.0269 11.5619 15.0529 12.0161 14.975 12.4573C14.8193 13.4176 14.2873 14.1313 13.4827 14.6633C13.4568 14.6893 13.4178 14.7023 13.3789 14.7282C13.5865 14.9229 13.7812 15.1175 13.9758 15.3122C13.7422 15.5587 13.5346 15.7663 13.327 15.9869C13.314 15.9869 13.301 15.9869 13.301 15.9869C13.0156 15.7014 12.7431 15.416 12.4576 15.1305C12.4316 15.1045 12.3667 15.0916 12.3148 15.1045C12.1072 15.1175 11.9126 15.1435 11.7049 15.1435C9.27834 15.1435 6.85173 15.1435 4.42513 15.1435C4.17858 15.1435 3.93203 15.1175 3.69845 15.1045C3.65952 15.1045 3.60761 15.1175 3.58166 15.1435C3.29618 15.4289 3.0107 15.7144 2.73819 15.9999C2.71224 15.9999 2.69926 15.9999 2.68628 15.9999Z" fill="#999CA0"/>
<path d="M16 8.78492C15.9611 8.87576 15.9222 8.97957 15.8703 9.07041C15.7145 9.34291 15.468 9.52458 15.1565 9.53756C14.4947 9.55054 13.8329 9.53756 13.1711 9.53756C13.1711 8.91469 13.1711 8.30479 13.1711 7.66895C13.223 7.66895 13.2879 7.66895 13.3398 7.66895C13.8978 7.66895 14.4558 7.66895 15.0138 7.66895C15.5199 7.66895 15.8313 7.90252 15.987 8.38265C15.987 8.39563 16 8.4086 16.013 8.42158C16 8.52539 16 8.65516 16 8.78492Z" fill="#999CA0"/>
<path d="M3.78929 4.67175C3.65952 3.30922 4.37323 2.24515 5.59302 1.92074C5.39837 1.40168 5.048 1.03834 4.47704 0.973457C4.04881 0.921551 3.60761 0.921551 3.17939 0.960481C2.42675 1.02536 1.9077 1.62228 1.9077 2.38789C1.9077 3.7634 1.9077 5.13891 1.9077 6.51441C1.9077 6.5793 1.9077 6.6312 1.9077 6.70906C1.59626 6.70906 1.2978 6.70906 0.973389 6.70906C0.973389 6.65716 0.973389 6.60525 0.973389 6.55334C0.973389 5.15188 0.973389 3.75042 0.973389 2.34896C0.973389 1.03834 2.01151 0.000221128 3.32213 0.000221128C3.75036 0.000221128 4.17858 -0.0127554 4.59383 0.0391506C5.52813 0.155939 6.30672 0.869645 6.51435 1.778C6.55328 1.88181 6.5922 1.92074 6.69602 1.94669C7.70818 2.18027 8.47379 3.14053 8.47379 4.17865C8.47379 4.33437 8.47379 4.50306 8.47379 4.67175C6.91662 4.67175 5.35944 4.67175 3.78929 4.67175Z" fill="#999CA0"/>
<path d="M8.46074 7.66898C8.46074 8.29185 8.46074 8.90175 8.46074 9.52462C8.42181 9.52462 8.38288 9.5376 8.33097 9.5376C5.86544 9.5376 3.39991 9.5376 0.93438 9.5376C0.467226 9.5376 0.077932 9.20021 7.30781e-05 8.74603C-0.0777858 8.30483 0.19472 7.86363 0.622944 7.70791C0.726756 7.68196 0.817591 7.65601 0.908427 7.65601C3.39991 7.65601 5.8914 7.65601 8.38288 7.65601C8.40883 7.65601 8.43478 7.65601 8.46074 7.66898Z" fill="#999CA0"/>
<path d="M9.40796 10.9261C9.40796 10.407 9.40796 9.90092 9.40796 9.40781C9.40796 8.82387 9.40796 8.2529 9.40796 7.66896C9.40796 7.12395 9.81023 6.72168 10.3552 6.72168C10.6797 6.72168 11.0041 6.72168 11.3285 6.72168C11.7956 6.72168 12.2109 7.13693 12.2239 7.60408C12.2239 8.69411 12.2239 9.78413 12.2239 10.8612C12.2239 10.8742 12.2239 10.8871 12.2109 10.9131C11.2895 10.9261 10.3552 10.9261 9.40796 10.9261Z" fill="#999CA0"/>
</g>
<defs>
<clipPath id="clip0_35073_7341">
<rect width="16" height="16" fill="white"/>
</clipPath>
</defs>
</svg>
