<svg width="16" height="16" viewBox="0 0 16 16" fill="none" xmlns="http://www.w3.org/2000/svg">
<g clip-path="url(#clip0_30949_32897)">
<path d="M12.9686 8.46425L12.022 7.32994C11.4132 6.59922 11.5049 6.0002 11.5299 5.04856C11.5341 4.85314 11.409 4.67896 11.2255 4.62373L10.1288 4.3051C9.90366 4.24137 9.66597 4.37307 9.61176 4.60248C9.42829 5.40967 8.77361 6.17438 7.99383 6.17438C7.21406 6.17438 6.55521 5.42242 6.3759 4.62373C6.32586 4.39431 6.08818 4.26262 5.86717 4.32209L4.75797 4.62373C4.57032 4.67471 4.44106 4.85314 4.4494 5.04856C4.47442 5.93222 4.55364 6.61621 3.95734 7.33418L3.0066 8.48124C2.56876 9.00804 2.3269 9.67928 2.3269 10.3718V12.7806C2.3269 13.4476 2.86065 13.9914 3.51533 13.9914H12.4515C13.1228 13.9914 13.6691 13.4348 13.6691 12.7508V10.4015C13.6691 9.68778 13.4189 8.99954 12.9686 8.45575V8.46425ZM7.998 11.8629C6.86795 11.8629 5.95057 10.9283 5.95057 9.77699C5.95057 8.62569 6.86795 7.69105 7.998 7.69105C9.12805 7.69105 10.0454 8.62569 10.0454 9.77699C10.0454 10.9283 9.12805 11.8629 7.998 11.8629Z" fill="#999CA0"/>
<path d="M15.3873 3.21765C13.8486 1.9134 10.9922 1 8.00232 1C5.01248 1 2.15191 1.9134 0.61321 3.21765C0.0877995 3.66373 -0.245794 5.08693 0.229577 6.02157C0.571511 6.70131 0.980163 6.9902 1.70573 6.76503L2.91501 6.25948C3.39038 6.13627 3.50714 5.8219 3.40706 5.2781C3.18605 4.07582 3.51548 3.69346 4.57464 3.41732C5.56291 3.16242 6.93482 3.13268 7.99815 3.13268C9.06148 3.13268 10.4334 3.16242 11.4217 3.41732C12.4808 3.69346 12.8102 4.07582 12.5892 5.2781C12.4892 5.82614 12.6101 6.13627 13.0813 6.25948L14.2906 6.76503C15.0161 6.9902 15.4206 6.70131 15.7667 6.02157C16.2421 5.08268 15.9043 3.65948 15.3789 3.2134L15.3873 3.21765Z" fill="#999CA0"/>
</g>
<defs>
<clipPath id="clip0_30949_32897">
<rect width="16" height="13" fill="white" transform="translate(0 1)"/>
</clipPath>
</defs>
</svg>
