<svg width="16" height="16" viewBox="0 0 16 16" fill="none" xmlns="http://www.w3.org/2000/svg">
<g clip-path="url(#clip0_31449_39907)">
<path d="M16 16V14.2222C15.4933 14.2222 15.1133 14.0741 14.86 13.7778C14.6067 13.4815 14.1067 13.3333 13.36 13.3333C12.6133 13.3333 12.1 13.4815 11.82 13.7778C11.54 14.0741 11.16 14.2222 10.68 14.2222C10.2 14.2222 9.82 14.0741 9.54 13.7778C9.26 13.4815 8.74667 13.3333 8 13.3333C7.25333 13.3333 6.74 13.4815 6.46 13.7778C6.18 14.0741 5.8 14.2222 5.32 14.2222C4.84 14.2222 4.46 14.0741 4.18 13.7778C3.9 13.4815 3.38667 13.3333 2.64 13.3333C1.89333 13.3333 1.39333 13.4815 1.14 13.7778C0.886666 14.0741 0.506666 14.2222 0 14.2222V16C0.786667 16 1.30347 15.8519 1.5504 15.5556C1.7968 15.2593 2.16 15.1111 2.64 15.1111C3.12 15.1111 3.5 15.2593 3.78 15.5556C4.06 15.8519 4.57333 16 5.32 16C6.06667 16 6.58 15.8519 6.86 15.5556C7.14 15.2593 7.52 15.1111 8 15.1111C8.48 15.1111 8.86 15.2593 9.14 15.5556C9.42 15.8519 9.93333 16 10.68 16C11.4267 16 11.94 15.8519 12.22 15.5556C12.5 15.2593 12.88 15.1111 13.36 15.1111C13.84 15.1111 14.2032 15.2593 14.4496 15.5556C14.6965 15.8519 15.2133 16 16 16ZM16 12V10.2222C15.4933 10.2222 15.1133 10.0741 14.86 9.77778C14.6067 9.48148 14.1067 9.33333 13.36 9.33333C12.6133 9.33333 12.0965 9.48148 11.8096 9.77778C11.5232 10.0741 11.1467 10.2222 10.68 10.2222C10.2 10.2222 9.82 10.0741 9.54 9.77778C9.26 9.48148 8.74667 9.33333 8 9.33333C7.25333 9.33333 6.74 9.48148 6.46 9.77778C6.18 10.0741 5.8 10.2222 5.32 10.2222C4.84 10.2222 4.46 10.0741 4.18 9.77778C3.9 9.48148 3.38667 9.33333 2.64 9.33333C1.89333 9.33333 1.39333 9.48148 1.14 9.77778C0.886666 10.0741 0.506666 10.2222 0 10.2222V12C0.786667 12 1.30347 11.8519 1.5504 11.5556C1.7968 11.2593 2.16 11.1111 2.64 11.1111C3.12 11.1111 3.49013 11.2593 3.7504 11.5556C4.01013 11.8519 4.53333 12 5.32 12C6.08 12 6.59653 11.8519 6.8696 11.5556C7.1432 11.2593 7.52 11.1111 8 11.1111C8.50667 11.1111 8.8832 11.2593 9.1296 11.5556C9.37653 11.8519 9.89333 12 10.68 12C11.4667 12 11.9899 11.8519 12.2496 11.5556C12.5099 11.2593 12.88 11.1111 13.36 11.1111C13.84 11.1111 14.2032 11.2593 14.4496 11.5556C14.6965 11.8519 15.2133 12 16 12ZM12.08 7.46667L9.42 4.51111L10.22 3.62222C10.66 3.13333 11.1267 2.77778 11.62 2.55556C12.1133 2.33333 12.72 2.22222 13.44 2.22222V0C12.44 0 11.6133 0.122074 10.96 0.366222C10.3067 0.610963 9.66667 1.08148 9.04 1.77778L3.92 7.46667C4.14667 7.62963 4.36667 7.75911 4.58 7.85511C4.79333 7.9517 5.04 8 5.32 8C5.8 8 6.18 7.85185 6.46 7.55556C6.74 7.25926 7.25333 7.11111 8 7.11111C8.74667 7.11111 9.26 7.25926 9.54 7.55556C9.82 7.85185 10.2 8 10.68 8C10.96 8 11.2067 7.9517 11.42 7.85511C11.6333 7.75911 11.8533 7.62963 12.08 7.46667ZM4.24 0C3.68 0 3.20667 0.21837 2.82 0.655111C2.43333 1.09244 2.24 1.61481 2.24 2.22222C2.24 2.84444 2.43333 3.37037 2.82 3.8C3.20667 4.22963 3.68 4.44444 4.24 4.44444C4.8 4.44444 5.27333 4.22963 5.66 3.8C6.04667 3.37037 6.24 2.84444 6.24 2.22222C6.24 1.61481 6.04667 1.09244 5.66 0.655111C5.27333 0.21837 4.8 0 4.24 0Z" fill="#034C82"/>
</g>
<defs>
<clipPath id="clip0_31449_39907">
<rect width="16" height="16" fill="white" transform="matrix(-1 0 0 1 16 0)"/>
</clipPath>
</defs>
</svg>
