<svg width="25" height="24" viewBox="0 0 25 24" fill="none" xmlns="http://www.w3.org/2000/svg">
<path d="M21.8 10.08C21.519 9.74269 21.1674 9.47113 20.77 9.28452C20.3726 9.0979 19.939 9.0008 19.5 9.00004H14.94L15.5 7.57004C15.7329 6.94393 15.8105 6.27065 15.7261 5.60797C15.6416 4.94528 15.3977 4.31297 15.0152 3.76527C14.6327 3.21758 14.123 2.77084 13.5299 2.46339C12.9369 2.15593 12.278 1.99694 11.61 2.00004C11.4176 2.00045 11.2295 2.05632 11.0681 2.16097C10.9067 2.26561 10.7789 2.41459 10.7 2.59004L7.85 9.00004H5.5C4.70435 9.00004 3.94129 9.31611 3.37868 9.87872C2.81607 10.4413 2.5 11.2044 2.5 12V19C2.5 19.7957 2.81607 20.5588 3.37868 21.1214C3.94129 21.684 4.70435 22 5.5 22H18.23C18.9318 21.9998 19.6113 21.7535 20.1503 21.3041C20.6893 20.8546 21.0537 20.2304 21.18 19.54L22.45 12.54C22.5286 12.1074 22.511 11.6628 22.3987 11.2377C22.2864 10.8126 22.082 10.4174 21.8 10.08ZM7.5 20H5.5C5.23478 20 4.98043 19.8947 4.79289 19.7072C4.60536 19.5196 4.5 19.2653 4.5 19V12C4.5 11.7348 4.60536 11.4805 4.79289 11.2929C4.98043 11.1054 5.23478 11 5.5 11H7.5V20ZM20.5 12.18L19.23 19.18C19.1874 19.413 19.0635 19.6233 18.8804 19.7734C18.6973 19.9236 18.4668 20.0039 18.23 20H9.5V10.21L12.22 4.09004C12.5 4.17167 12.76 4.31045 12.9837 4.49763C13.2073 4.6848 13.3897 4.91631 13.5194 5.17754C13.6491 5.43876 13.7232 5.72404 13.7371 6.01535C13.7509 6.30666 13.7043 6.59768 13.6 6.87004L13.07 8.30005C12.9571 8.6023 12.9189 8.92739 12.9589 9.24758C12.9988 9.56776 13.1156 9.87353 13.2993 10.1388C13.483 10.404 13.7282 10.6209 14.0139 10.7709C14.2996 10.9209 14.6173 10.9995 14.94 11H19.5C19.6469 10.9998 19.7921 11.0319 19.9252 11.0942C20.0582 11.1564 20.176 11.2472 20.27 11.36C20.3663 11.4714 20.4369 11.6026 20.4767 11.7443C20.5164 11.8861 20.5244 12.0349 20.5 12.18Z" fill="#999CA0"/>
</svg>
