<svg width="16" height="16" viewBox="0 0 16 16" fill="none" xmlns="http://www.w3.org/2000/svg">
<g clip-path="url(#clip0_31013_35947)">
<path d="M16.0001 8.94047C15.8919 12.791 12.7615 15.8941 8.87527 15.9999C8.76115 16.0028 8.66777 15.9103 8.66777 15.7972V10.1138C8.66777 9.35166 9.29176 8.7334 10.061 8.7334H15.7955C15.9096 8.73487 16.003 8.82739 16.0001 8.94047Z" fill="#999CA0"/>
<path d="M8.07336 10.1153V15.7987C8.07336 15.9117 7.97999 16.0042 7.86586 16.0013C3.97962 15.8941 0.847797 12.7925 0.741081 8.94193C0.738117 8.82885 0.831493 8.73633 0.94562 8.73633H6.68013C7.44937 8.73633 8.07336 9.35459 8.07336 10.1168V10.1153Z" fill="#999CA0"/>
<path d="M-7.62939e-06 7.06092C0.108191 3.20888 3.23853 0.107273 7.12477 6.80551e-05C7.2389 -0.00286907 7.33228 0.0896504 7.33228 0.20273V5.88607C7.33228 6.64826 6.70828 7.26652 5.93904 7.26652H0.203048C0.0889215 7.26652 -0.00445461 7.174 -0.00149012 7.06092H-7.62939e-06Z" fill="#999CA0"/>
<path d="M8.87379 0.880927C12.7615 0.988133 15.8919 4.08974 16.0001 7.94178C16.003 8.05486 15.9096 8.14738 15.7955 8.14738H10.0595C9.29028 8.14738 8.66629 7.52912 8.66629 6.76693V1.08359C8.66629 0.97051 8.75966 0.87799 8.87379 0.880927Z" fill="#999CA0"/>
</g>
<defs>
<clipPath id="clip0_31013_35947">
<rect width="16" height="16" fill="white" transform="matrix(-1 0 0 1 16 0)"/>
</clipPath>
</defs>
</svg>
