<svg width="16" height="16" viewBox="0 0 16 16" fill="none" xmlns="http://www.w3.org/2000/svg">
<g clip-path="url(#clip0_31449_39849)">
<path d="M16.0001 8.46033C16.0001 8.46033 14.3682 8.40527 11.8123 10.6011C9.25641 12.7968 6.19494 11.8913 4.99634 11.3288C4.99634 11.3288 6.9057 11.6314 10.0506 8.92712C12.4766 6.84111 16.0001 8.46033 16.0001 8.46033Z" fill="#034C82"/>
<path d="M14.5992 7.08763C14.5992 7.08763 13.2275 5.9075 11.0181 5.9075C9.03974 5.9075 7.52487 7.51374 6.71116 6.46092C6.45949 6.13546 6.40081 5.70374 6.59603 5.34497C6.72925 5.10052 6.98646 4.87817 7.48022 4.87817C8.13008 4.87817 8.36109 5.39968 8.36109 5.39968C8.36109 5.39968 8.62089 4 7.00344 4C3.9833 4 2.68579 8.19938 0 8.22673C0 8.22673 2.27137 10.1427 4.40436 10.2714C7.86586 10.4807 10.166 5.59186 14.5992 7.08763Z" fill="#034C82"/>
</g>
<defs>
<clipPath id="clip0_31449_39849">
<rect width="16" height="8" fill="white" transform="translate(0 4)"/>
</clipPath>
</defs>
</svg>
