<svg width="16" height="16" viewBox="0 0 16 16" fill="none" xmlns="http://www.w3.org/2000/svg">
<g clip-path="url(#clip0_31024_136362)">
<path d="M7.90272 0C7.96721 0 8.03224 0 8.09672 0C8.20657 0 8.31641 0 8.42625 0C9.20937 5.02574 9.56185 10.9743 13.1829 16C11.756 16 10.3291 16 8.90279 16C8.82956 15.4098 8.76398 14.8062 8.70605 14.1934C8.23498 14.1934 7.76446 14.1934 7.29393 14.1934C7.23601 14.8062 7.17043 15.4091 7.0972 16C5.67033 16 4.244 16 2.81767 16C6.43814 10.9743 6.79062 5.02574 7.57374 0C7.68358 0 7.79342 0 7.90272 0ZM8.09891 0.0820876C8.03278 0.0820876 7.96666 0.0820876 7.90053 0.0820876C7.89999 0.111101 7.89944 0.139407 7.89835 0.168421C7.96557 0.168421 8.03333 0.168421 8.10055 0.168421C8.10055 0.140115 8.1 0.111101 8.09891 0.0820876ZM8.10328 0.259C8.03442 0.259 7.96557 0.259 7.89671 0.259C7.89616 0.290137 7.89507 0.321981 7.89452 0.353826C7.96447 0.353826 8.03497 0.353826 8.10492 0.353826C8.10492 0.321981 8.10383 0.290137 8.10328 0.259ZM8.10765 0.452897C8.03606 0.452897 7.96447 0.452897 7.89234 0.452897C7.89124 0.487572 7.8907 0.522247 7.8896 0.556922C7.96283 0.556922 8.03606 0.556922 8.10984 0.556922C8.10929 0.521539 8.1082 0.486864 8.10765 0.452897ZM8.11257 0.6659C8.0377 0.6659 7.96283 0.6659 7.88742 0.6659C7.88632 0.704113 7.88578 0.743034 7.88469 0.781247C7.96119 0.781247 8.03825 0.781247 8.11476 0.781247C8.11421 0.743034 8.11366 0.704821 8.11257 0.6659ZM8.11803 0.902963C8.03934 0.902963 7.96119 0.902963 7.8825 0.902963C7.88141 0.945422 7.88031 0.988589 7.87977 1.03105C7.9601 1.03105 8.04098 1.03105 8.12131 1.03105C8.12022 0.988589 8.11913 0.94613 8.11803 0.902963ZM8.12405 1.16762C8.04153 1.16762 7.95901 1.16762 7.87649 1.16762C7.8754 1.21575 7.8743 1.26316 7.87321 1.31128C7.95791 1.31128 8.04262 1.31128 8.12733 1.31128C8.12623 1.26316 8.12514 1.21504 8.12405 1.16762ZM8.1306 1.46342C8.04371 1.46342 7.95627 1.46342 7.86938 1.46342C7.86829 1.5172 7.86665 1.57099 7.86556 1.62548C7.95518 1.62548 8.04481 1.62548 8.13388 1.62548C8.13334 1.57169 8.1317 1.51791 8.1306 1.46342ZM8.13825 1.79814C8.0459 1.79814 7.95409 1.79814 7.86173 1.79814C7.86009 1.85971 7.859 1.92057 7.85791 1.98213C7.953 1.98213 8.04808 1.98213 8.14263 1.98213C8.14099 1.92057 8.13989 1.85971 8.13825 1.79814ZM8.147 2.17886C8.04918 2.17886 7.95136 2.17886 7.85299 2.17886C7.85135 2.24892 7.84971 2.31897 7.84807 2.38903C7.94917 2.38903 8.05027 2.38903 8.15137 2.38903C8.15028 2.31897 8.14864 2.24821 8.147 2.17886ZM8.15684 2.61477C8.05191 2.61477 7.94753 2.61477 7.84261 2.61477C7.84097 2.69544 7.83878 2.77612 7.83714 2.8575C7.94589 2.8575 8.0541 2.8575 8.1623 2.8575C8.16066 2.77682 8.15902 2.69615 8.15684 2.61477ZM8.16886 3.12004C8.05628 3.12004 7.94371 3.12004 7.83113 3.12004C7.82894 3.21415 7.82676 3.30898 7.82457 3.4031C7.94152 3.4031 8.05901 3.4031 8.17596 3.4031C8.17378 3.30898 8.17104 3.21415 8.16886 3.12004ZM8.18361 3.71092C8.0612 3.71092 7.93933 3.71092 7.81692 3.71092C7.81419 3.82203 7.81146 3.93383 7.80818 4.04564C7.93606 4.04564 8.06393 4.04564 8.19181 4.04564C8.18908 3.93454 8.18635 3.82273 8.18361 3.71092ZM8.2011 4.4115C8.06666 4.4115 7.93278 4.4115 7.79834 4.4115C7.79506 4.54454 7.79124 4.67828 7.78796 4.81203C7.9295 4.81203 8.07049 4.81203 8.21203 4.81203C8.20821 4.67828 8.20493 4.54525 8.2011 4.4115ZM8.2246 5.2536C8.07486 5.2536 7.92567 5.2536 7.77593 5.2536C7.77156 5.41566 7.76664 5.57842 7.76173 5.74118C7.92075 5.74118 8.07978 5.74118 8.23881 5.74118C8.23389 5.57842 8.22897 5.41566 8.2246 5.2536ZM8.2552 6.28182C8.08525 6.28182 7.91474 6.28182 7.74479 6.28182C7.73823 6.48279 7.73167 6.68448 7.72511 6.88616C7.90873 6.88616 8.0918 6.88616 8.27542 6.88616C8.26832 6.68448 8.26176 6.48279 8.2552 6.28182ZM8.29947 7.56338C8.1 7.56338 7.89999 7.56338 7.70052 7.56338C7.69123 7.81813 7.68085 8.0736 7.67046 8.32835C7.89015 8.32835 8.10984 8.32835 8.32952 8.32835C8.31914 8.07289 8.30876 7.81813 8.29947 7.56338ZM8.36778 9.19593C8.12295 9.19593 7.87758 9.19593 7.63276 9.19593C7.61745 9.52711 7.60106 9.85758 7.58357 10.1874C7.86173 10.1874 8.13989 10.1874 8.41751 10.1874C8.39947 9.85758 8.38308 9.52711 8.36778 9.19593ZM7.42509 12.6514C7.80818 12.6514 8.19181 12.6514 8.5749 12.6514C8.54156 12.2141 8.51096 11.7725 8.48309 11.3288C8.16066 11.3288 7.83878 11.3288 7.51635 11.3288C7.48903 11.7725 7.45843 12.2141 7.42509 12.6514Z" fill="#999CA0"/>
<path d="M8.55031 0C8.60605 0 8.66179 0 8.71754 0C9.8974 5.02574 10.4461 10.9743 16 16C15.524 16 15.0486 16 14.5726 16C9.98593 10.9743 9.53836 5.02574 8.55031 0Z" fill="#999CA0"/>
<path d="M7.28242 0C7.33817 0 7.39391 0 7.4502 0C6.4616 5.02574 6.01403 10.9743 1.42738 16C0.951391 16 0.475949 16 -4.00543e-05 16C5.55389 10.9743 6.10256 5.02574 7.28242 0Z" fill="#999CA0"/>
</g>
<defs>
<clipPath id="clip0_31024_136362">
<rect width="16" height="16" fill="white" transform="matrix(-1 0 0 1 16 0)"/>
</clipPath>
</defs>
</svg>
