<svg width="25" height="24" viewBox="0 0 25 24" fill="none" xmlns="http://www.w3.org/2000/svg">
<path d="M16.21 12.7099C17.1904 11.9385 17.906 10.8808 18.2572 9.68382C18.6085 8.48684 18.5779 7.21015 18.1698 6.03135C17.7617 4.85255 16.9963 3.83027 15.9801 3.10674C14.9639 2.3832 13.7474 1.99438 12.5 1.99438C11.2525 1.99438 10.0361 2.3832 9.01993 3.10674C8.00374 3.83027 7.23834 4.85255 6.83021 6.03135C6.42208 7.21015 6.39151 8.48684 6.74276 9.68382C7.09401 10.8808 7.8096 11.9385 8.79 12.7099C7.11007 13.3829 5.64428 14.4992 4.54889 15.9398C3.45349 17.3804 2.76956 19.0912 2.57 20.8899C2.55555 21.0212 2.56711 21.1541 2.60402 21.2809C2.64093 21.4078 2.70246 21.5261 2.78511 21.6292C2.95202 21.8374 3.19478 21.9707 3.46 21.9999C3.72521 22.0291 3.99116 21.9517 4.19932 21.7848C4.40749 21.6179 4.54082 21.3751 4.57 21.1099C4.78958 19.1551 5.72168 17.3497 7.18822 16.0387C8.65475 14.7277 10.5529 14.0029 12.52 14.0029C14.4871 14.0029 16.3852 14.7277 17.8518 16.0387C19.3183 17.3497 20.2504 19.1551 20.47 21.1099C20.4972 21.3556 20.6144 21.5825 20.7991 21.7469C20.9838 21.9113 21.2228 22.0014 21.47 21.9999H21.58C21.8421 21.9697 22.0817 21.8372 22.2466 21.6311C22.4114 21.4251 22.4881 21.1622 22.46 20.8999C22.2595 19.0961 21.5719 17.3809 20.4708 15.9381C19.3698 14.4953 17.8969 13.3794 16.21 12.7099ZM12.5 11.9999C11.7089 11.9999 10.9355 11.7653 10.2777 11.3258C9.61992 10.8862 9.10723 10.2615 8.80448 9.53061C8.50173 8.79971 8.42251 7.99544 8.57686 7.21952C8.7312 6.4436 9.11216 5.73086 9.67157 5.17145C10.231 4.61204 10.9437 4.23108 11.7196 4.07674C12.4956 3.9224 13.2998 4.00161 14.0307 4.30436C14.7616 4.60711 15.3863 5.1198 15.8259 5.7776C16.2654 6.4354 16.5 7.20876 16.5 7.99988C16.5 9.06075 16.0786 10.0782 15.3284 10.8283C14.5783 11.5785 13.5609 11.9999 12.5 11.9999Z" fill="#999CA0"/>
</svg>
