<svg width="30" height="31" viewBox="0 0 30 31" fill="none" xmlns="http://www.w3.org/2000/svg">
<path d="M19.6376 16.6568C20.8631 15.6926 21.7576 14.3705 22.1967 12.8742C22.6357 11.378 22.5975 9.78215 22.0874 8.30866C21.5772 6.83516 20.6204 5.55731 19.3502 4.65289C18.08 3.74847 16.5594 3.26245 15.0001 3.26245C13.4408 3.26245 11.9203 3.74847 10.65 4.65289C9.3798 5.55731 8.42305 6.83516 7.91288 8.30866C7.40272 9.78215 7.36451 11.378 7.80357 12.8742C8.24263 14.3705 9.13713 15.6926 10.3626 16.6568C8.26271 17.4981 6.43048 18.8935 5.06123 20.6942C3.69199 22.4949 2.83707 24.6335 2.58762 26.8818C2.56956 27.046 2.58401 27.2121 2.63015 27.3706C2.67629 27.5292 2.7532 27.6771 2.85651 27.806C3.06514 28.0662 3.3686 28.2329 3.70012 28.2693C4.03164 28.3058 4.36407 28.2091 4.62427 28.0004C4.88448 27.7918 5.05115 27.4883 5.08762 27.1568C5.3621 24.7133 6.52723 22.4566 8.36039 20.8178C10.1936 19.179 12.5662 18.2731 15.0251 18.2731C17.484 18.2731 19.8567 19.179 21.6898 20.8178C23.523 22.4566 24.6881 24.7133 24.9626 27.1568C24.9966 27.464 25.1432 27.7476 25.374 27.9531C25.6048 28.1585 25.9036 28.2712 26.2126 28.2693H26.3501C26.6778 28.2316 26.9773 28.0659 27.1833 27.8084C27.3894 27.5508 27.4853 27.2223 27.4501 26.8943C27.1995 24.6396 26.34 22.4956 24.9637 20.6921C23.5874 18.8886 21.7463 17.4937 19.6376 16.6568ZM15.0001 15.7693C14.0112 15.7693 13.0445 15.4761 12.2223 14.9267C11.4 14.3773 10.7592 13.5964 10.3807 12.6827C10.0023 11.7691 9.90326 10.7638 10.0962 9.79387C10.2891 8.82396 10.7653 7.93305 11.4646 7.23379C12.1638 6.53452 13.0548 6.05832 14.0247 5.86539C14.9946 5.67247 15.9999 5.77149 16.9135 6.14992C17.8272 6.52836 18.6081 7.16922 19.1575 7.99147C19.7069 8.81372 20.0001 9.78041 20.0001 10.7693C20.0001 12.0954 19.4733 13.3672 18.5357 14.3049C17.598 15.2425 16.3262 15.7693 15.0001 15.7693Z" fill="#034C82"/>
</svg>
