<svg width="12" height="16" viewBox="0 0 12 16" fill="none" xmlns="http://www.w3.org/2000/svg">
<path d="M0 1.46289H12V16H0V1.46289Z" fill="#999CA0"/>
<path d="M0 0H12V1.06833H0V0Z" fill="#999CA0"/>
<path d="M8.10521 4.35156H10.6909V6.74544H8.10521V4.35156Z" fill="white"/>
<path d="M4.66722 4.35156H7.25293V6.74544H4.66722V4.35156Z" fill="white"/>
<path d="M1.22875 4.35156H3.81445V6.74544H1.22875V4.35156Z" fill="white"/>
<path d="M8.10521 7.53418H10.6909V9.92806H8.10521V7.53418Z" fill="white"/>
<path d="M4.66722 7.53418H7.25293V9.92806H4.66722V7.53418Z" fill="white"/>
<path d="M1.22875 7.53418H3.81445V9.92806H1.22875V7.53418Z" fill="white"/>
<path d="M8.10521 10.7178H10.6909V13.1117H8.10521V10.7178Z" fill="white"/>
<path d="M4.66722 10.7178H7.25293V13.1117H4.66722V10.7178Z" fill="white"/>
<path d="M1.22875 10.7178H3.81445V13.1117H1.22875V10.7178Z" fill="white"/>
</svg>
