<svg width="16" height="16" viewBox="0 0 16 16" fill="none" xmlns="http://www.w3.org/2000/svg">
<g clip-path="url(#clip0_30949_32876)">
<path d="M7.9973 0C8.94363 1.61933 9.85643 3.17573 10.7644 4.73455C11.2987 5.65193 11.8425 6.56689 12.3576 7.49637C13.9101 10.3018 12.5134 13.7195 9.59529 14.7216C6.13578 15.9125 2.69304 13.1071 3.02126 9.36986C3.09313 8.54446 3.42854 7.82314 3.83582 7.12361C4.88039 5.33242 5.92495 3.54123 6.96951 1.75004C7.30013 1.18364 7.63554 0.617234 7.9973 0ZM5.39787 6.98806C5.18944 7.3584 4.95705 7.74084 4.7558 8.14023C4.48269 8.67759 4.29342 9.24399 4.26467 9.85396C4.24071 10.4107 4.52581 10.8851 4.97382 11.0449C5.39548 11.1949 5.87464 11.0449 6.15255 10.6745C6.44483 10.2848 6.41608 9.79829 6.10463 9.32145C5.97047 9.11812 5.84109 8.89543 5.7788 8.66064C5.63027 8.11118 5.52246 7.54962 5.39787 6.98806Z" fill="#999CA0"/>
</g>
<defs>
<clipPath id="clip0_30949_32876">
<rect width="10" height="15" fill="white" transform="translate(3)"/>
</clipPath>
</defs>
</svg>
