<svg width="24" height="24" viewBox="0 0 24 24" fill="none" xmlns="http://www.w3.org/2000/svg">
<path d="M16.512 13.984C16.265 13.86 15.047 13.26 14.82 13.178C14.593 13.095 14.428 13.054 14.263 13.302C14.098 13.549 13.623 14.108 13.478 14.273C13.334 14.438 13.189 14.458 12.942 14.334C12.2121 14.0434 11.5383 13.6278 10.951 13.106C10.4093 12.6053 9.94493 12.027 9.573 11.39C9.429 11.142 9.558 11.008 9.682 10.885C9.793 10.774 9.93 10.596 10.053 10.451C10.1549 10.3258 10.2384 10.1867 10.301 10.038C10.334 9.96962 10.3493 9.8941 10.3456 9.81831C10.342 9.74251 10.3194 9.66883 10.28 9.60397C10.218 9.47997 9.723 8.26097 9.517 7.76497C9.316 7.28297 9.112 7.34797 8.959 7.33997C8.815 7.33297 8.65 7.33097 8.485 7.33097C8.35949 7.33447 8.23605 7.36391 8.12247 7.41743C8.00888 7.47096 7.9076 7.54741 7.825 7.64197C7.54502 7.90711 7.32334 8.22765 7.17407 8.58318C7.0248 8.93872 6.95121 9.32144 6.958 9.70697C7.0383 10.6412 7.38968 11.5317 7.969 12.269C9.03092 13.861 10.4886 15.1495 12.199 16.008C12.6604 16.2062 13.1317 16.3804 13.611 16.53C14.1163 16.6834 14.6505 16.7166 15.171 16.627C15.5157 16.5571 15.8422 16.4166 16.1298 16.2142C16.4174 16.0117 16.6599 15.7519 16.842 15.451C17.0044 15.0809 17.0545 14.6713 16.986 14.273C16.925 14.169 16.76 14.108 16.512 13.984ZM19.004 4.90497C17.3039 3.20533 15.0442 2.18138 12.6454 2.02378C10.2466 1.86618 7.8723 2.58565 5.96448 4.04825C4.05667 5.51086 2.74536 7.61692 2.27469 9.97434C1.80403 12.3318 2.20608 14.7799 3.406 16.863L2 21.998L7.254 20.621C8.70716 21.4122 10.3354 21.8268 11.99 21.827H11.994C13.9541 21.826 15.8699 21.244 17.4994 20.1547C19.1289 19.0653 20.399 17.5174 21.1491 15.7066C21.8993 13.8957 22.0959 11.9031 21.7141 9.98056C21.3323 8.05801 20.3892 6.29176 19.004 4.90496V4.90497ZM16.371 18.894C15.0591 19.7162 13.5423 20.1526 11.994 20.153H11.99C10.5149 20.1529 9.06699 19.756 7.798 19.004L7.497 18.826L4.379 19.644L5.211 16.604L5.016 16.292C4.15055 14.9118 3.71378 13.306 3.76094 11.6776C3.80809 10.0492 4.33705 8.47141 5.28092 7.14365C6.22479 5.81588 7.54119 4.79782 9.06365 4.21819C10.5861 3.63856 12.2463 3.5234 13.8342 3.88727C15.4221 4.25114 16.8664 5.0777 17.9846 6.26242C19.1027 7.44715 19.8445 8.93684 20.116 10.5431C20.3876 12.1494 20.1767 13.8001 19.5101 15.2865C18.8435 16.773 17.7511 18.0284 16.371 18.894Z" fill="white"/>
</svg>
